<?xml version="1.0" encoding="iso-8859-1"?>
<!-- Generator: Adobe Illustrator 18.0.0, SVG Export Plug-In . SVG Version: 6.00 Build 0)  -->
<!DOCTYPE svg PUBLIC "-//W3C//DTD SVG 1.1//EN" "http://www.w3.org/Graphics/SVG/1.1/DTD/svg11.dtd">
<svg version="1.1" id="Capa_1" xmlns="http://www.w3.org/2000/svg" xmlns:xlink="http://www.w3.org/1999/xlink" x="0px" y="0px"
	 viewBox="0 0 495.545 495.545" style="enable-background:new 0 0 495.545 495.545;" xml:space="preserve">
<path id="XMLID_2_" d="M268.234,20.467c-71.09,0-134.609,32.862-176.322,84.133c8.916,3.007,16.471,9.265,20.784,18.036
	l26.005,52.576c25.484-45.305,73.959-76.027,129.533-76.027c81.937,0,148.601,66.647,148.601,148.583
	c0,81.944-66.664,148.593-148.601,148.593c-72.776,0-133.376-52.624-146.021-121.801l31.078,20.954
	c1.767,1.184,4.087,1.03,5.691-0.357c1.588-1.394,2.059-3.689,1.135-5.593c-51.83-104.772,0.338,0.706-75.646-152.969
	c-0.779-1.589-2.399-2.602-4.185-2.602c-1.782,0-3.402,1.013-4.164,2.602c-3.615,7.288-59.938,121.226-75.631,152.969
	c-0.956,1.904-0.486,4.199,1.119,5.593c1.589,1.386,3.906,1.541,5.674,0.357l34.969-23.565
	c12.129,114.003,108.799,203.13,225.98,203.13c125.352,0,227.311-101.966,227.311-227.31
	C495.545,122.433,393.586,20.467,268.234,20.467z"/>
<g>
</g>
<g>
</g>
<g>
</g>
<g>
</g>
<g>
</g>
<g>
</g>
<g>
</g>
<g>
</g>
<g>
</g>
<g>
</g>
<g>
</g>
<g>
</g>
<g>
</g>
<g>
</g>
<g>
</g>
</svg>
