<?xml version="1.0" encoding="iso-8859-1"?>
<!-- Generator: Adobe Illustrator 18.0.0, SVG Export Plug-In . SVG Version: 6.00 Build 0)  -->
<!DOCTYPE svg PUBLIC "-//W3C//DTD SVG 1.1//EN" "http://www.w3.org/Graphics/SVG/1.1/DTD/svg11.dtd">
<svg version="1.1" id="Capa_1" xmlns="http://www.w3.org/2000/svg" xmlns:xlink="http://www.w3.org/1999/xlink" x="0px" y="0px"
	 viewBox="0 0 495.468 495.468" style="enable-background:new 0 0 495.468 495.468;" xml:space="preserve">
<path id="XMLID_29_" d="M465.831,319.206c-1.531-8.056-7.769-14.695-15.756-16.817c-7.173-1.905-14.147-1.773-21.611,5.346
	l-16.678,16.67L333.683,246.3l76.603-76.603l18.191,18.201c4.184,4.157,13.843,7.44,22.044,5.318
	c7.951-2.059,13.761-8.774,15.276-16.764L495.07,26.378c1.382-7.247-0.885-14.709-6.05-19.782
	c-5.542-5.442-16.358-6.745-26.595-4.79c-40.395,7.715-143.352,27.921-143.352,27.921c-8.014,1.566-14.496,7.389-16.912,15.228
	c-2.416,7.871-0.283,16.368,5.516,22.133l16.66,16.66l-76.604,76.604L171.13,83.748l16.627-16.619
	c5.831-5.806,7.963-14.303,5.549-22.2c-2.416-7.813-8.898-13.636-16.91-15.202c0,0-109.887-21.208-147.647-28.773
	C21.172-0.565,10.626,2.388,6.545,6.512c-5.248,5.189-7.531,12.619-6.132,19.917l29.238,149.958
	c1.535,8.056,9.222,15.595,17.321,17.219c7.459,1.496,15.834-1.55,20.046-5.748l18.162-18.16l76.602,76.603L83.68,324.405
	l-16.71-16.71c-4.182-4.158-11.735-7.811-20.459-5.695c-6.971,1.689-15.344,9.151-16.86,17.141L0.397,469.213
	c-1.384,7.249,0.899,14.678,6.047,19.784c4.182,4.207,13.776,7.024,21.562,5.505c39.015-7.614,148.355-28.63,148.355-28.63
	c8.03-1.558,14.529-7.389,16.945-15.234c2.414-7.871,0.282-16.368-5.517-22.132l-18.157-18.16l78.101-78.104l78.102,78.104
	l-18.125,18.118c-5.832,5.806-7.965,14.303-5.549,22.198c2.416,7.821,8.914,13.652,16.927,15.204c0,0,103.88,19.83,142.158,27.712
	c11.051,2.275,22.203,1.341,27.676-4.498c5.04-5.376,7.53-12.618,6.132-19.917L465.831,319.206z M347.744,436.694l26.339-26.348
	l-126.35-126.352l-126.35,126.352l26.34,26.348L37.315,458.209l21.508-110.407l24.857,24.85L210.032,246.3L85.18,121.451
	l-26.339,26.339L37.315,37.382L147.722,58.9l-24.839,24.849L247.733,208.6L372.585,83.748L347.744,58.9l110.407-21.518
	l-21.524,110.407l-26.341-26.339L285.435,246.3l126.351,126.352l24.857-24.85l21.508,110.407L347.744,436.694z"/>
<g>
</g>
<g>
</g>
<g>
</g>
<g>
</g>
<g>
</g>
<g>
</g>
<g>
</g>
<g>
</g>
<g>
</g>
<g>
</g>
<g>
</g>
<g>
</g>
<g>
</g>
<g>
</g>
<g>
</g>
</svg>
