<?xml version="1.0" encoding="iso-8859-1"?>
<!-- Generator: Adobe Illustrator 18.0.0, SVG Export Plug-In . SVG Version: 6.00 Build 0)  -->
<!DOCTYPE svg PUBLIC "-//W3C//DTD SVG 1.1//EN" "http://www.w3.org/Graphics/SVG/1.1/DTD/svg11.dtd">
<svg version="1.1" id="Capa_1" xmlns="http://www.w3.org/2000/svg" xmlns:xlink="http://www.w3.org/1999/xlink" x="0px" y="0px"
	 viewBox="0 0 494.457 494.457" style="enable-background:new 0 0 494.457 494.457;" xml:space="preserve">
<path id="XMLID_32_" d="M459.289,323.041c-1.928-0.588-3.999-0.062-5.428,1.357l-30.803,30.794L313.493,245.625l107.959-107.959
	l32.392,32.392c1.427,1.421,3.499,1.947,5.428,1.357c1.91-0.588,3.356-2.178,3.731-4.15L494.359,6.469
	c0.341-1.769-0.214-3.598-1.499-4.876c-1.269-1.277-3.09-1.829-4.875-1.481L327.188,31.45c-1.964,0.384-3.553,1.83-4.141,3.741
	c-0.592,1.918-0.072,4.008,1.356,5.427l30.784,30.785L247.229,179.361L139.27,71.402l30.783-30.785
	c1.429-1.418,1.947-3.509,1.357-5.427c-0.589-1.911-2.178-3.357-4.144-3.741L6.472,0.112C4.686-0.236,2.866,0.316,1.598,1.593
	c-1.286,1.278-1.84,3.108-1.5,4.876l31.355,160.795c0.375,1.973,1.82,3.562,3.731,4.15c1.929,0.591,4.001,0.064,5.429-1.357
	l32.392-32.392l107.959,107.959L71.399,355.192l-30.803-30.794c-1.43-1.419-3.5-1.945-5.429-1.357
	c-1.911,0.592-3.358,2.189-3.732,4.153L0.098,487.988c-0.34,1.769,0.214,3.599,1.5,4.875c1.268,1.276,3.088,1.83,4.874,1.483
	l160.778-31.338c1.982-0.385,3.571-1.831,4.16-3.742c0.59-1.92,0.071-4.008-1.357-5.429l-32.391-32.39l109.566-109.566
	l109.565,109.566l-32.391,32.39c-1.429,1.421-1.948,3.509-1.356,5.429c0.588,1.911,2.177,3.357,4.159,3.742l160.778,31.338
	c1.785,0.347,3.606-0.207,4.875-1.483c1.285-1.276,1.84-3.106,1.499-4.875L463.02,327.194
	C462.645,325.23,461.199,323.632,459.289,323.041z"/>
<g>
</g>
<g>
</g>
<g>
</g>
<g>
</g>
<g>
</g>
<g>
</g>
<g>
</g>
<g>
</g>
<g>
</g>
<g>
</g>
<g>
</g>
<g>
</g>
<g>
</g>
<g>
</g>
<g>
</g>
</svg>
