<?xml version="1.0" encoding="iso-8859-1"?>
<!-- Generator: Adobe Illustrator 18.0.0, SVG Export Plug-In . SVG Version: 6.00 Build 0)  -->
<!DOCTYPE svg PUBLIC "-//W3C//DTD SVG 1.1//EN" "http://www.w3.org/Graphics/SVG/1.1/DTD/svg11.dtd">
<svg version="1.1" id="Capa_1" xmlns="http://www.w3.org/2000/svg" xmlns:xlink="http://www.w3.org/1999/xlink" x="0px" y="0px"
	 viewBox="0 0 489.125 489.125" style="enable-background:new 0 0 489.125 489.125;" xml:space="preserve">
<path id="XMLID_77_" d="M420.313,77.396L264.726,0.493c-1.94-0.955-4.272-0.494-5.695,1.133c-1.409,1.618-1.57,3.997-0.356,5.777
	l23.4,34.729C162.157,47.416,66.173,146.337,66.173,267.517c0,107.942,76.108,198.448,177.483,220.672
	c24.896,5.457,48.42-13.675,48.42-39.163l0,0c0-18.846-13.162-35.052-31.563-39.127c-65.291-14.459-114.266-72.809-114.266-142.383
	c0-76.796,59.701-139.767,135.115-145.285l-22.689,33.678c-1.214,1.78-1.053,4.16,0.356,5.777c1.423,1.628,3.755,2.088,5.695,1.134
	l155.587-76.904c1.619-0.801,2.639-2.452,2.639-4.264C422.952,79.848,421.932,78.197,420.313,77.396z"/>
<g>
</g>
<g>
</g>
<g>
</g>
<g>
</g>
<g>
</g>
<g>
</g>
<g>
</g>
<g>
</g>
<g>
</g>
<g>
</g>
<g>
</g>
<g>
</g>
<g>
</g>
<g>
</g>
<g>
</g>
</svg>
