<?xml version="1.0" encoding="iso-8859-1"?>
<!-- Generator: Adobe Illustrator 18.0.0, SVG Export Plug-In . SVG Version: 6.00 Build 0)  -->
<!DOCTYPE svg PUBLIC "-//W3C//DTD SVG 1.1//EN" "http://www.w3.org/Graphics/SVG/1.1/DTD/svg11.dtd">
<svg version="1.1" id="Capa_1" xmlns="http://www.w3.org/2000/svg" xmlns:xlink="http://www.w3.org/1999/xlink" x="0px" y="0px"
	 viewBox="0 0 492.263 492.263" style="enable-background:new 0 0 492.263 492.263;" xml:space="preserve">
<path id="XMLID_28_" d="M328.311,323.935c-1.651-1.46-4.095-1.613-5.925-0.377l-37.24,25.092V143.612l37.224,25.101
	c1.847,1.236,4.272,1.083,5.941-0.378c1.671-1.453,2.152-3.847,1.157-5.83L250.492,2.715C249.672,1.053,247.987,0,246.124,0
	c-1.862,0-3.549,1.053-4.367,2.715L162.778,162.49c-0.978,1.983-0.495,4.376,1.174,5.837c1.67,1.454,4.095,1.606,5.942,0.37
	l37.223-25.092v205.054l-37.24-25.092c-1.83-1.237-4.271-1.084-5.925,0.368c-1.669,1.454-2.151,3.855-1.174,5.838l78.979,159.775
	c0.818,1.662,2.505,2.715,4.367,2.715c1.863,0,3.549-1.053,4.368-2.715l78.992-159.775
	C330.463,327.79,329.982,325.389,328.311,323.935z"/>
<g>
</g>
<g>
</g>
<g>
</g>
<g>
</g>
<g>
</g>
<g>
</g>
<g>
</g>
<g>
</g>
<g>
</g>
<g>
</g>
<g>
</g>
<g>
</g>
<g>
</g>
<g>
</g>
<g>
</g>
</svg>
