<?xml version="1.0" encoding="iso-8859-1"?>
<!-- Generator: Adobe Illustrator 18.0.0, SVG Export Plug-In . SVG Version: 6.00 Build 0)  -->
<!DOCTYPE svg PUBLIC "-//W3C//DTD SVG 1.1//EN" "http://www.w3.org/Graphics/SVG/1.1/DTD/svg11.dtd">
<svg version="1.1" id="Capa_1" xmlns="http://www.w3.org/2000/svg" xmlns:xlink="http://www.w3.org/1999/xlink" x="0px" y="0px"
	 viewBox="0 0 492.569 492.569" style="enable-background:new 0 0 492.569 492.569;" xml:space="preserve">
<path id="XMLID_22_" d="M400.652,276.716L267.33,210.828c-1.197-0.589-2.608-0.517-3.732,0.177c-1.133,0.7-1.819,1.938-1.819,3.268
	v39.979h-6.061c-25.957,0-49.985,8.246-69.753,22.161V141.009h39.434c1.331,0,2.567-0.686,3.271-1.817
	c0.702-1.125,0.766-2.536,0.174-3.731L162.987,2.137C162.342,0.829,161.002,0,159.543,0c-1.459,0-2.799,0.829-3.445,2.137
	L90.178,135.46c-0.589,1.195-0.518,2.606,0.183,3.731c0.702,1.132,1.93,1.817,3.262,1.817h40.52c0,0,0,220.543,0,351.56h51.821
	c0-81.821,0-116.741,0-116.741c0-38.463,31.293-69.756,69.753-69.756h6.061v39.993c0,1.33,0.686,2.567,1.819,3.262
	c1.124,0.703,2.535,0.773,3.732,0.183l133.323-65.902c1.307-0.647,2.136-1.986,2.136-3.446
	C402.789,278.702,401.96,277.362,400.652,276.716z"/>
<g>
</g>
<g>
</g>
<g>
</g>
<g>
</g>
<g>
</g>
<g>
</g>
<g>
</g>
<g>
</g>
<g>
</g>
<g>
</g>
<g>
</g>
<g>
</g>
<g>
</g>
<g>
</g>
<g>
</g>
</svg>
