<?xml version="1.0" encoding="iso-8859-1"?>
<!-- Generator: Adobe Illustrator 18.0.0, SVG Export Plug-In . SVG Version: 6.00 Build 0)  -->
<!DOCTYPE svg PUBLIC "-//W3C//DTD SVG 1.1//EN" "http://www.w3.org/Graphics/SVG/1.1/DTD/svg11.dtd">
<svg version="1.1" id="Capa_1" xmlns="http://www.w3.org/2000/svg" xmlns:xlink="http://www.w3.org/1999/xlink" x="0px" y="0px"
	 viewBox="0 0 493.44 493.44" style="enable-background:new 0 0 493.44 493.44;" xml:space="preserve">
<g id="XMLID_13_">
	<path id="XMLID_14_" d="M482.494,229.107l-114.855-56.949c-12.434-6.165-27.016,2.881-27.016,16.76v26.307
		c-9.956-29.398-33.29-52.636-62.767-62.414h24.949c6.785,0,12.994-3.426,16.738-9.33c3.602-5.857,3.922-13.018,0.881-19.036
		L264.412,11.05C261.147,4.338,254.217,0,246.745,0c-7.475,0-14.403,4.338-17.62,10.946l-56.142,113.563
		c-2.991,6.112-2.641,13.202,1.024,19.139c3.634,5.737,9.843,9.163,16.628,9.163h24.95c-29.479,9.787-52.829,33.039-62.767,62.455
		V189.12c0-13.866-14.56-22.913-26.992-16.771L10.963,229.1c-6.755,3.337-10.963,10.09-10.963,17.637
		c0,7.545,4.208,14.298,10.946,17.628l114.894,56.648c12.432,6.129,26.978-2.917,26.978-16.777v-25.692
		c9.826,29.078,32.759,52.107,61.759,62.087h-23.942c-6.785,0-12.994,3.425-16.741,9.329c-3.552,5.77-3.902,12.859-0.88,19.044
		l56.061,113.387c3.266,6.713,10.194,11.051,17.669,11.051c7.473,0,14.402-4.338,17.619-10.956l55.996-113.368
		c3.105-6.139,2.785-13.3-0.928-19.324c-3.633-5.737-9.842-9.162-16.627-9.162h-23.941c28.998-9.971,51.915-32.984,61.759-62.047
		l-0.074,25.746c-0.039,13.891,14.539,22.978,26.992,16.825l114.937-56.784c6.754-3.336,10.963-10.089,10.963-17.634
		C493.44,239.189,489.231,232.436,482.494,229.107z M120.043,281.695L49.26,246.736l70.782-34.992V281.695z M211.76,120.034
		l34.984-70.758l34.952,70.758H211.76z M281.697,373.404l-34.952,70.76l-34.984-70.76H281.697z M246.713,313.303
		c-36.604,0-66.385-29.782-66.385-66.399c0-36.616,29.781-66.398,66.385-66.398c36.616,0,66.414,29.782,66.414,66.398
		C313.128,283.521,283.33,313.303,246.713,313.303z M373.397,281.695v-69.951l70.783,34.992L373.397,281.695z"/>
</g>
<g>
</g>
<g>
</g>
<g>
</g>
<g>
</g>
<g>
</g>
<g>
</g>
<g>
</g>
<g>
</g>
<g>
</g>
<g>
</g>
<g>
</g>
<g>
</g>
<g>
</g>
<g>
</g>
<g>
</g>
</svg>
