<?xml version="1.0" encoding="iso-8859-1"?>
<!-- Generator: Adobe Illustrator 18.0.0, SVG Export Plug-In . SVG Version: 6.00 Build 0)  -->
<!DOCTYPE svg PUBLIC "-//W3C//DTD SVG 1.1//EN" "http://www.w3.org/Graphics/SVG/1.1/DTD/svg11.dtd">
<svg version="1.1" id="Capa_1" xmlns="http://www.w3.org/2000/svg" xmlns:xlink="http://www.w3.org/1999/xlink" x="0px" y="0px"
	 viewBox="0 0 495.624 495.624" style="enable-background:new 0 0 495.624 495.624;" xml:space="preserve">
<g id="XMLID_40_">
	<g id="XMLID_47_">
		<path id="XMLID_48_" d="M28.853,117.313c-1.266,0.426-2.236,1.478-2.531,2.785c-0.313,1.298,0.082,2.663,1.033,3.607
			l17.113,17.112l-0.244,0.239c-57.602,57.617-58.688,150.469-3.553,209.589l-6.213-18.37c-4.57-13.397-1.216-27.971,8.941-38.212
			c7.003-6.944,16.274-10.767,26.104-10.767c4.076,0,8.09,0.665,11.87,1.948l19.823,6.708c-23.21-26.213-22.535-66.306,2.531-91.383
			l0.248-0.237l17.078,17.087c0.955,0.946,2.318,1.332,3.619,1.029c1.297-0.306,2.348-1.258,2.776-2.523
			c4.63-13.678,25.934-76.725,44.764-132.384c2.317-6.849-4.215-13.382-11.063-11.062C119.119,86.724,42.922,112.551,28.853,117.313
			z"/>
	</g>
	<g id="XMLID_45_">
		<path id="XMLID_46_" d="M379.054,29.876c-1.297-0.303-2.663,0.083-3.616,1.029l-17.096,17.096l-3.765-3.772
			C326.058,15.707,288.152,0,247.812,0c-40.341,0-78.246,15.707-106.752,44.22l-0.18,0.181l18.756-6.345
			c3.895-1.349,7.974-2.038,12.114-2.038c9.782,0,19.02,3.78,26.351,11.013c9.929,10.085,13.25,24.65,8.715,37.875l-6.445,19.042
			l0.213-0.213c12.609-12.625,29.377-19.569,47.229-19.569c17.85,0,34.617,6.944,47.243,19.577l3.782,3.789l-17.081,17.087
			c-0.953,0.946-1.347,2.31-1.036,3.609c0.298,1.306,1.25,2.358,2.516,2.786c7.333,2.486,83.891,28.367,132.275,44.734
			c6.847,2.316,13.377-4.217,11.061-11.064c-14.071-41.617-40.762-120.55-44.739-132.285
			C381.404,31.134,380.353,30.182,379.054,29.876z"/>
	</g>
	<g id="XMLID_43_">
		<path id="XMLID_44_" d="M336.002,457.552c-3.912,1.365-8.003,2.047-12.145,2.047c-9.882,0-19.17-3.846-26.254-10.923
			c-9.994-10.084-13.349-24.682-8.796-37.973l6.429-18.994l-0.181,0.181c-25.251,25.25-69.239,25.259-94.487-0.007l-3.797-3.79
			l17.094-17.095c0.955-0.946,1.35-2.31,1.036-3.609c-0.298-1.306-1.247-2.358-2.531-2.786
			c-11.316-3.828-94.025-31.847-132.294-44.811c-6.848-2.319-13.38,4.21-11.063,11.058c13.604,40.228,40.566,119.946,44.724,132.2
			c0.337,0.992,0.993,1.869,1.925,2.348c1.539,0.791,3.344,0.475,4.524-0.693l17.096-17.098l3.779,3.79
			c28.506,28.52,66.429,44.227,106.752,44.227c40.322,0,78.246-15.707,106.75-44.22l0.197-0.196L336.002,457.552z"/>
	</g>
	<g id="XMLID_41_">
		<path id="XMLID_42_" d="M451.154,354.805l0.246-0.238c57.6-57.591,58.686-150.442,3.566-209.58l6.197,18.353
			c4.57,13.374,1.022,28.414-8.76,38.03c-6.906,6.962-16.473,10.957-26.285,10.957c-4.077,0-8.09-0.673-11.869-1.956l-19.824-6.708
			c23.211,26.212,22.535,66.305-2.531,91.389l-0.249,0.239l-17.078-17.087c-1.245-1.236-3.199-1.516-4.781-0.549
			c-0.795,0.484-1.352,1.271-1.649,2.153c-3.941,11.676-31.503,93.11-44.755,132.263c-2.318,6.849,4.215,13.382,11.063,11.061
			c37.966-12.86,120.943-40.969,132.325-44.82c1.266-0.428,2.235-1.48,2.532-2.786c0.313-1.298-0.083-2.663-1.036-3.609
			L451.154,354.805z"/>
	</g>
</g>
<g>
</g>
<g>
</g>
<g>
</g>
<g>
</g>
<g>
</g>
<g>
</g>
<g>
</g>
<g>
</g>
<g>
</g>
<g>
</g>
<g>
</g>
<g>
</g>
<g>
</g>
<g>
</g>
<g>
</g>
</svg>
