<?xml version="1.0" encoding="iso-8859-1"?>
<!-- Generator: Adobe Illustrator 18.0.0, SVG Export Plug-In . SVG Version: 6.00 Build 0)  -->
<!DOCTYPE svg PUBLIC "-//W3C//DTD SVG 1.1//EN" "http://www.w3.org/Graphics/SVG/1.1/DTD/svg11.dtd">
<svg version="1.1" id="Capa_1" xmlns="http://www.w3.org/2000/svg" xmlns:xlink="http://www.w3.org/1999/xlink" x="0px" y="0px"
	 viewBox="0 0 493.786 493.786" style="enable-background:new 0 0 493.786 493.786;" xml:space="preserve">
<g id="XMLID_98_">
	<path id="XMLID_99_" d="M292.83,468.252L292.83,468.252c-7.113,0-14.033-1.378-20.589-4.097
		c-20.205-8.394-33.246-27.92-33.246-49.746v-47.855C103.083,345.608-0.034,227.757,0,87.932c0-7.985,0.351-15.9,0.994-23.71
		c1.569-18.549,15.394-34.108,33.63-37.848c18.025-3.722,37.115,5.187,45.815,21.521c33.036,61.932,91.036,104.278,158.556,117.074
		v-44.795c0-21.844,13.041-41.361,33.246-49.737c19.699-8.194,43.409-3.565,58.646,11.637L478.026,229.23
		c10.164,10.156,15.76,23.675,15.76,38.065c0,14.384-5.596,27.902-15.76,38.067L330.923,452.475
		C320.759,462.646,307.23,468.252,292.83,468.252z M54.341,106.917c9.257,111.53,99.529,201.661,213.141,208.914
		c14.105,0.907,25.068,12.594,25.068,26.726l0.28,72.139c0.054,0,0.14-0.009,0.226-0.087l147.105-147.121L293.056,119.975
		l-0.506,75.305c0,7.399-3.068,14.46-8.453,19.524c-5.404,5.056-12.467,7.705-20.032,7.2
		C179.305,216.609,103.364,174.367,54.341,106.917z"/>
</g>
<g>
</g>
<g>
</g>
<g>
</g>
<g>
</g>
<g>
</g>
<g>
</g>
<g>
</g>
<g>
</g>
<g>
</g>
<g>
</g>
<g>
</g>
<g>
</g>
<g>
</g>
<g>
</g>
<g>
</g>
</svg>
