<?xml version="1.0" encoding="iso-8859-1"?>
<!-- Generator: Adobe Illustrator 18.0.0, SVG Export Plug-In . SVG Version: 6.00 Build 0)  -->
<!DOCTYPE svg PUBLIC "-//W3C//DTD SVG 1.1//EN" "http://www.w3.org/Graphics/SVG/1.1/DTD/svg11.dtd">
<svg version="1.1" id="Capa_1" xmlns="http://www.w3.org/2000/svg" xmlns:xlink="http://www.w3.org/1999/xlink" x="0px" y="0px"
	 viewBox="0 0 486.421 486.421" style="enable-background:new 0 0 486.421 486.421;" xml:space="preserve">
<path id="XMLID_95_" d="M478.227,277.867L326.589,126.21c-7.98-7.979-19.986-10.37-30.409-6.056
	c-10.424,4.33-17.216,14.494-17.216,25.78v86.772c-83.601-4.878-150.148-74.229-150.148-159.017
	c0-35.573-28.843-64.408-64.407-64.408S0,38.116,0,73.689c0,155.818,124.341,282.846,278.964,287.833v87.717
	c0,11.277,6.792,21.448,17.216,25.771c3.45,1.428,7.082,2.129,10.676,2.129c7.26,0,14.412-2.84,19.733-8.176l151.638-151.657
	C489.152,306.424,489.152,288.749,478.227,277.867z"/>
<g>
</g>
<g>
</g>
<g>
</g>
<g>
</g>
<g>
</g>
<g>
</g>
<g>
</g>
<g>
</g>
<g>
</g>
<g>
</g>
<g>
</g>
<g>
</g>
<g>
</g>
<g>
</g>
<g>
</g>
</svg>
