<?xml version="1.0" encoding="iso-8859-1"?>
<!-- Generator: Adobe Illustrator 18.0.0, SVG Export Plug-In . SVG Version: 6.00 Build 0)  -->
<!DOCTYPE svg PUBLIC "-//W3C//DTD SVG 1.1//EN" "http://www.w3.org/Graphics/SVG/1.1/DTD/svg11.dtd">
<svg version="1.1" id="Capa_1" xmlns="http://www.w3.org/2000/svg" xmlns:xlink="http://www.w3.org/1999/xlink" x="0px" y="0px"
	 viewBox="0 0 492.367 492.367" style="enable-background:new 0 0 492.367 492.367;" xml:space="preserve">
<g id="XMLID_123_">
	<path id="XMLID_126_" d="M490.265,250.516c2.803-2.803,2.803-7.346,0-10.148L331.602,81.692c-2.053-2.053-5.14-2.667-7.821-1.557
		c-2.682,1.111-4.431,3.729-4.431,6.631v76.717H6.125c-2.47,0-4.698,1.484-5.651,3.764c-0.952,2.279-0.442,4.907,1.293,6.665
		l66.366,67.227c2.355,2.386,2.355,6.222,0,8.607L1.767,316.968c-1.735,1.758-2.245,4.386-1.292,6.665
		c0.952,2.279,3.181,3.764,5.651,3.764H319.35v79.255c0,2.478,1.492,4.712,3.781,5.659c2.289,0.948,4.924,0.424,6.676-1.328
		L490.265,250.516z"/>
</g>
<g>
</g>
<g>
</g>
<g>
</g>
<g>
</g>
<g>
</g>
<g>
</g>
<g>
</g>
<g>
</g>
<g>
</g>
<g>
</g>
<g>
</g>
<g>
</g>
<g>
</g>
<g>
</g>
<g>
</g>
</svg>
