<?xml version="1.0" encoding="iso-8859-1"?>
<!-- Generator: Adobe Illustrator 18.0.0, SVG Export Plug-In . SVG Version: 6.00 Build 0)  -->
<!DOCTYPE svg PUBLIC "-//W3C//DTD SVG 1.1//EN" "http://www.w3.org/Graphics/SVG/1.1/DTD/svg11.dtd">
<svg version="1.1" id="Capa_1" xmlns="http://www.w3.org/2000/svg" xmlns:xlink="http://www.w3.org/1999/xlink" x="0px" y="0px"
	 viewBox="0 0 492.682 492.682" style="enable-background:new 0 0 492.682 492.682;" xml:space="preserve">
<g id="XMLID_129_">
	<path id="XMLID_130_" d="M251.083,487.933c-4.839,0-9.713-0.934-14.351-2.86c-14.032-5.809-23.178-19.492-23.178-34.678v-71.494
		H37.538C16.807,378.901,0,362.093,0,341.362V151.324c0-20.73,16.807-37.539,37.538-37.539h176.016V42.292
		c0-15.187,9.146-28.869,23.178-34.679c14.013-5.819,30.169-2.602,40.901,8.138l204.052,204.052
		c14.663,14.654,14.663,38.428,0,53.083l-204.052,204.05C270.459,484.12,260.853,487.933,251.083,487.933z M75.077,303.824h176.015
		c20.731,0,37.539,16.807,37.539,37.538v18.403l113.421-113.422L288.631,132.921v18.403c0,20.73-16.808,37.539-37.539,37.539H75.077
		V303.824z"/>
</g>
<g>
</g>
<g>
</g>
<g>
</g>
<g>
</g>
<g>
</g>
<g>
</g>
<g>
</g>
<g>
</g>
<g>
</g>
<g>
</g>
<g>
</g>
<g>
</g>
<g>
</g>
<g>
</g>
<g>
</g>
</svg>
