<?xml version="1.0" encoding="iso-8859-1"?>
<!-- Generator: Adobe Illustrator 18.0.0, SVG Export Plug-In . SVG Version: 6.00 Build 0)  -->
<!DOCTYPE svg PUBLIC "-//W3C//DTD SVG 1.1//EN" "http://www.w3.org/Graphics/SVG/1.1/DTD/svg11.dtd">
<svg version="1.1" id="Capa_1" xmlns="http://www.w3.org/2000/svg" xmlns:xlink="http://www.w3.org/1999/xlink" x="0px" y="0px"
	 viewBox="0 0 494.361 494.361" style="enable-background:new 0 0 494.361 494.361;" xml:space="preserve">
<g id="XMLID_82_">
	<path id="XMLID_85_" d="M486.319,227.83L337.511,79.003c-7.83-7.83-19.612-10.176-29.84-5.943
		c-10.229,4.251-16.895,14.223-16.895,25.299v297.645c0,11.066,6.665,21.047,16.895,25.289c3.386,1.401,6.948,2.09,10.476,2.09
		c7.124,0,14.143-2.787,19.364-8.024l148.809-148.827C497.041,255.853,497.041,238.508,486.319,227.83z"/>
	<path id="XMLID_84_" d="M222.35,70.979h-72.236c-11.85,0-21.443,9.602-21.443,21.445v309.512c0,11.843,9.594,21.445,21.443,21.445
		h72.236c11.852,0,21.445-9.602,21.445-21.445V92.425C243.795,80.581,234.201,70.979,222.35,70.979z"/>
	<path id="XMLID_83_" d="M59.82,70.979H21.445C9.596,70.979,0,80.581,0,92.425v309.512c0,11.843,9.596,21.445,21.445,21.445H59.82
		c11.852,0,21.445-9.602,21.445-21.445V92.425C81.266,80.581,71.672,70.979,59.82,70.979z"/>
</g>
<g>
</g>
<g>
</g>
<g>
</g>
<g>
</g>
<g>
</g>
<g>
</g>
<g>
</g>
<g>
</g>
<g>
</g>
<g>
</g>
<g>
</g>
<g>
</g>
<g>
</g>
<g>
</g>
<g>
</g>
</svg>
