<?xml version="1.0" encoding="iso-8859-1"?>
<!-- Generator: Adobe Illustrator 18.0.0, SVG Export Plug-In . SVG Version: 6.00 Build 0)  -->
<!DOCTYPE svg PUBLIC "-//W3C//DTD SVG 1.1//EN" "http://www.w3.org/Graphics/SVG/1.1/DTD/svg11.dtd">
<svg version="1.1" id="Capa_1" xmlns="http://www.w3.org/2000/svg" xmlns:xlink="http://www.w3.org/1999/xlink" x="0px" y="0px"
	 viewBox="0 0 491.737 491.737" style="enable-background:new 0 0 491.737 491.737;" xml:space="preserve">
<path id="XMLID_7_" d="M485.981,233.385L314.071,86.543c-7.68-6.556-18.479-8.051-27.642-3.822
	c-9.182,4.228-15.054,13.406-15.054,23.507v67.949c-62.44-20.765-135.359-33.775-165.903-33.775C47.234,140.401,0,187.619,0,245.875
	c0,58.253,47.234,105.471,105.473,105.471c30.544,0,103.463-13.011,165.903-33.776v67.94c0,10.1,5.872,19.281,15.054,23.508
	c9.162,4.228,19.962,2.734,27.642-3.822L486,258.336c3.644-3.122,5.737-7.679,5.737-12.479S489.644,236.499,485.981,233.385z
	 M102.401,299.325c-29.533,0-53.464-23.936-53.464-53.46c0-29.525,23.931-53.463,53.464-53.463c29.531,0,53.46,23.938,53.46,53.463
	C155.861,275.388,131.933,299.325,102.401,299.325z"/>
<g>
</g>
<g>
</g>
<g>
</g>
<g>
</g>
<g>
</g>
<g>
</g>
<g>
</g>
<g>
</g>
<g>
</g>
<g>
</g>
<g>
</g>
<g>
</g>
<g>
</g>
<g>
</g>
<g>
</g>
</svg>
