<?xml version="1.0" encoding="iso-8859-1"?>
<!-- Generator: Adobe Illustrator 18.0.0, SVG Export Plug-In . SVG Version: 6.00 Build 0)  -->
<!DOCTYPE svg PUBLIC "-//W3C//DTD SVG 1.1//EN" "http://www.w3.org/Graphics/SVG/1.1/DTD/svg11.dtd">
<svg version="1.1" id="Capa_1" xmlns="http://www.w3.org/2000/svg" xmlns:xlink="http://www.w3.org/1999/xlink" x="0px" y="0px"
	 viewBox="0 0 493.117 493.117" style="enable-background:new 0 0 493.117 493.117;" xml:space="preserve">
<path id="XMLID_11_" d="M486.785,175.677L369.598,58.48c-6.165-6.164-15.445-8.015-23.491-4.684
	c-8.056,3.354-13.31,11.203-13.31,19.925v75.111H183.068c-23.244,0-42.085,18.838-42.085,42.084v165.873H42.084
	C18.84,356.788,0,375.627,0,398.872c0,23.246,18.84,42.085,42.084,42.085h140.984c23.246,0,42.085-18.839,42.085-42.085V233h107.644
	v75.103c0,8.714,5.254,16.58,13.31,19.916c2.662,1.102,5.465,1.645,8.243,1.645c5.614,0,11.138-2.196,15.249-6.321l117.187-117.196
	C495.228,197.738,495.228,184.084,486.785,175.677z"/>
<g>
</g>
<g>
</g>
<g>
</g>
<g>
</g>
<g>
</g>
<g>
</g>
<g>
</g>
<g>
</g>
<g>
</g>
<g>
</g>
<g>
</g>
<g>
</g>
<g>
</g>
<g>
</g>
<g>
</g>
</svg>
