<?xml version="1.0" encoding="iso-8859-1"?>
<!-- Generator: Adobe Illustrator 18.0.0, SVG Export Plug-In . SVG Version: 6.00 Build 0)  -->
<!DOCTYPE svg PUBLIC "-//W3C//DTD SVG 1.1//EN" "http://www.w3.org/Graphics/SVG/1.1/DTD/svg11.dtd">
<svg version="1.1" id="Capa_1" xmlns="http://www.w3.org/2000/svg" xmlns:xlink="http://www.w3.org/1999/xlink" x="0px" y="0px"
	 viewBox="0 0 490.445 490.445" style="enable-background:new 0 0 490.445 490.445;" xml:space="preserve">
<g id="XMLID_91_">
	<path id="XMLID_92_" d="M314.887,420.767c-6.635,0-13.127-1.295-19.268-3.85c-18.859-7.816-31.048-26.046-31.048-46.451v-37.915
		L40.755,310.039C17.528,307.712,0,288.331,0,264.963v-39.563c0-23.366,17.528-42.749,40.77-45.075l223.802-22.514v-37.907
		c0-20.386,12.189-38.624,31.048-46.458c18.701-7.745,40.683-3.282,54.877,10.929l125.225,125.25
		c9.491,9.493,14.725,22.125,14.725,35.557c0,13.439-5.233,26.07-14.725,35.564L350.459,406.023
		C341.074,415.4,328.105,420.767,314.887,420.767z M54.504,256.633l240.052,24.156c13.928,1.403,24.52,13.121,24.52,27.119v52.419
		l115.128-115.145L319.075,130.043v52.41c0,13.998-10.592,25.716-24.52,27.119L54.504,233.729V256.633z"/>
</g>
<g>
</g>
<g>
</g>
<g>
</g>
<g>
</g>
<g>
</g>
<g>
</g>
<g>
</g>
<g>
</g>
<g>
</g>
<g>
</g>
<g>
</g>
<g>
</g>
<g>
</g>
<g>
</g>
<g>
</g>
</svg>
