<?xml version="1.0" encoding="iso-8859-1"?>
<!-- Generator: Adobe Illustrator 18.0.0, SVG Export Plug-In . SVG Version: 6.00 Build 0)  -->
<!DOCTYPE svg PUBLIC "-//W3C//DTD SVG 1.1//EN" "http://www.w3.org/Graphics/SVG/1.1/DTD/svg11.dtd">
<svg version="1.1" id="Capa_1" xmlns="http://www.w3.org/2000/svg" xmlns:xlink="http://www.w3.org/1999/xlink" x="0px" y="0px"
	 viewBox="0 0 494.789 494.789" style="enable-background:new 0 0 494.789 494.789;" xml:space="preserve">
<g id="XMLID_115_">
	<path id="XMLID_119_" d="M233.027,113.486c-10.469-10.453-27.413-10.453-37.882,0c-10.46,10.461-10.453,27.42,0,37.881
		l96.043,96.027l-96.043,96.036c-10.453,10.46-10.453,27.421,0,37.881c5.234,5.227,12.088,7.844,18.941,7.844
		s13.706-2.618,18.94-7.844l114.977-114.976c5.017-5.024,7.843-11.837,7.843-18.941c0-7.104-2.827-13.915-7.843-18.941
		L233.027,113.486z"/>
	<path id="XMLID_116_" d="M247.395,0C110.763,0,0,110.764,0,247.395c0,136.631,110.763,247.395,247.395,247.395
		c136.63,0,247.394-110.764,247.394-247.395C494.789,110.764,384.025,0,247.395,0z M247.395,428.817
		c-100.037,0-181.423-81.386-181.423-181.422S147.358,65.972,247.395,65.972c100.036,0,181.422,81.386,181.422,181.422
		S347.43,428.817,247.395,428.817z"/>
</g>
<g>
</g>
<g>
</g>
<g>
</g>
<g>
</g>
<g>
</g>
<g>
</g>
<g>
</g>
<g>
</g>
<g>
</g>
<g>
</g>
<g>
</g>
<g>
</g>
<g>
</g>
<g>
</g>
<g>
</g>
</svg>
