<?xml version="1.0" encoding="iso-8859-1"?>
<!-- Generator: Adobe Illustrator 18.0.0, SVG Export Plug-In . SVG Version: 6.00 Build 0)  -->
<!DOCTYPE svg PUBLIC "-//W3C//DTD SVG 1.1//EN" "http://www.w3.org/Graphics/SVG/1.1/DTD/svg11.dtd">
<svg version="1.1" id="Capa_1" xmlns="http://www.w3.org/2000/svg" xmlns:xlink="http://www.w3.org/1999/xlink" x="0px" y="0px"
	 viewBox="0 0 488.841 488.841" style="enable-background:new 0 0 488.841 488.841;" xml:space="preserve">
<g id="XMLID_86_">
	<path id="XMLID_87_" d="M313.86,419.386c-6.615,0-13.088-1.29-19.206-3.839c-18.798-7.788-30.946-25.958-30.946-46.295v-30.055
		L31.819,379.554c-11.105,1.927-22.212-3.174-27.978-12.823c-5.765-9.662-4.985-21.875,1.963-30.715l72.01-91.63L5.804,152.74
		c-6.948-8.843-7.727-21.063-1.963-30.718c5.766-9.646,16.872-14.775,27.978-12.821l231.889,40.355v-30.046
		c0-20.318,12.148-38.498,30.946-46.305c18.64-7.71,40.55-3.271,54.696,10.893l124.814,124.84
		c9.462,9.46,14.678,22.052,14.678,35.438c0,13.396-5.216,25.987-14.678,35.447L349.316,404.69
		C339.961,414.038,327.033,419.386,313.86,419.386z M290.869,279.736c6.35,0,12.557,2.229,17.49,6.376
		c6.136,5.164,9.672,12.768,9.672,20.786v52.248l114.751-114.769l-114.751-114.76v52.239c0,8.019-3.536,15.624-9.672,20.787
		c-6.153,5.165-14.307,7.366-22.141,5.969L92.279,174.861l41.452,52.743c7.729,9.851,7.729,23.714,0,33.565l-41.434,52.724
		l193.921-33.75C287.757,279.869,289.313,279.736,290.869,279.736z"/>
</g>
<g>
</g>
<g>
</g>
<g>
</g>
<g>
</g>
<g>
</g>
<g>
</g>
<g>
</g>
<g>
</g>
<g>
</g>
<g>
</g>
<g>
</g>
<g>
</g>
<g>
</g>
<g>
</g>
<g>
</g>
</svg>
