<?xml version="1.0" encoding="iso-8859-1"?>
<!-- Generator: Adobe Illustrator 18.0.0, SVG Export Plug-In . SVG Version: 6.00 Build 0)  -->
<!DOCTYPE svg PUBLIC "-//W3C//DTD SVG 1.1//EN" "http://www.w3.org/Graphics/SVG/1.1/DTD/svg11.dtd">
<svg version="1.1" id="Capa_1" xmlns="http://www.w3.org/2000/svg" xmlns:xlink="http://www.w3.org/1999/xlink" x="0px" y="0px"
	 viewBox="0 0 497.455 497.455" style="enable-background:new 0 0 497.455 497.455;" xml:space="preserve">
<path id="XMLID_25_" d="M438.325,90.641L256.044,0.543c-1.626-0.805-3.564-0.71-5.103,0.249c-1.539,0.961-2.482,2.647-2.482,4.465
	v36.957h-8.304c-101.427,0-183.949,82.521-183.949,183.951v271.29h106.281v-271.29c0-42.831,34.838-77.67,77.668-77.67h8.304v36.957
	c0,1.817,0.943,3.504,2.482,4.464c1.539,0.96,3.477,1.056,5.103,0.252l182.282-90.1c1.791-0.892,2.924-2.716,2.924-4.714
	S440.116,91.532,438.325,90.641z"/>
<g>
</g>
<g>
</g>
<g>
</g>
<g>
</g>
<g>
</g>
<g>
</g>
<g>
</g>
<g>
</g>
<g>
</g>
<g>
</g>
<g>
</g>
<g>
</g>
<g>
</g>
<g>
</g>
<g>
</g>
</svg>
