<?xml version="1.0" encoding="iso-8859-1"?>
<!-- Generator: Adobe Illustrator 18.0.0, SVG Export Plug-In . SVG Version: 6.00 Build 0)  -->
<!DOCTYPE svg PUBLIC "-//W3C//DTD SVG 1.1//EN" "http://www.w3.org/Graphics/SVG/1.1/DTD/svg11.dtd">
<svg version="1.1" id="Capa_1" xmlns="http://www.w3.org/2000/svg" xmlns:xlink="http://www.w3.org/1999/xlink" x="0px" y="0px"
	 viewBox="0 0 491.685 491.685" style="enable-background:new 0 0 491.685 491.685;" xml:space="preserve">
<path id="XMLID_127_" d="M484.276,227.958L315.018,58.709c-7.236-7.221-18.104-9.41-27.564-5.483
	c-9.45,3.91-15.609,13.131-15.609,23.363v65.146H120.001c-5.912,0-11.634,2.066-16.178,5.855l-94.71,78.811
	C3.342,231.201,0,238.322,0,245.839c0,7.508,3.342,14.638,9.113,19.438l94.71,78.82c4.544,3.786,10.266,5.853,16.178,5.853h151.844
	v65.146c0,10.224,6.159,19.454,15.609,23.364c3.13,1.302,6.422,1.927,9.675,1.927c6.586,0,13.057-2.567,17.889-7.41l169.258-169.256
	c4.741-4.742,7.409-11.172,7.409-17.882C491.685,239.13,489.017,232.699,484.276,227.958z"/>
<g>
</g>
<g>
</g>
<g>
</g>
<g>
</g>
<g>
</g>
<g>
</g>
<g>
</g>
<g>
</g>
<g>
</g>
<g>
</g>
<g>
</g>
<g>
</g>
<g>
</g>
<g>
</g>
<g>
</g>
</svg>
