<?xml version="1.0" encoding="iso-8859-1"?>
<!-- Generator: Adobe Illustrator 18.0.0, SVG Export Plug-In . SVG Version: 6.00 Build 0)  -->
<!DOCTYPE svg PUBLIC "-//W3C//DTD SVG 1.1//EN" "http://www.w3.org/Graphics/SVG/1.1/DTD/svg11.dtd">
<svg version="1.1" id="Capa_1" xmlns="http://www.w3.org/2000/svg" xmlns:xlink="http://www.w3.org/1999/xlink" x="0px" y="0px"
	 viewBox="0 0 492.789 492.789" style="enable-background:new 0 0 492.789 492.789;" xml:space="preserve">
<g id="XMLID_110_">
	<path id="XMLID_114_" d="M393.524,229.27L278.028,113.774c-3.33-3.33-8.333-4.324-12.689-2.52
		c-4.347,1.797-7.187,6.048-7.187,10.756v53.371H122.771c-13.369,0-24.214,10.843-24.214,24.214v93.601
		c0,13.371,10.845,24.214,24.214,24.214h135.381v53.371c0,4.708,2.84,8.959,7.187,10.756c4.356,1.804,9.359,0.81,12.689-2.52
		l115.496-115.497C402.981,254.062,402.981,238.727,393.524,229.27z"/>
	<path id="XMLID_111_" d="M246.395,0C110.315,0,0,110.316,0,246.394c0,136.079,110.315,246.395,246.395,246.395
		c136.078,0,246.394-110.315,246.394-246.395C492.789,110.316,382.473,0,246.395,0z M246.395,443.51
		c-108.688,0-197.116-88.428-197.116-197.116S137.706,49.279,246.395,49.279S443.51,137.706,443.51,246.394
		S355.082,443.51,246.395,443.51z"/>
</g>
<g>
</g>
<g>
</g>
<g>
</g>
<g>
</g>
<g>
</g>
<g>
</g>
<g>
</g>
<g>
</g>
<g>
</g>
<g>
</g>
<g>
</g>
<g>
</g>
<g>
</g>
<g>
</g>
<g>
</g>
</svg>
