<?xml version="1.0" encoding="iso-8859-1"?>
<!-- Generator: Adobe Illustrator 18.0.0, SVG Export Plug-In . SVG Version: 6.00 Build 0)  -->
<!DOCTYPE svg PUBLIC "-//W3C//DTD SVG 1.1//EN" "http://www.w3.org/Graphics/SVG/1.1/DTD/svg11.dtd">
<svg version="1.1" id="Capa_1" xmlns="http://www.w3.org/2000/svg" xmlns:xlink="http://www.w3.org/1999/xlink" x="0px" y="0px"
	 viewBox="0 0 490.188 490.188" style="enable-background:new 0 0 490.188 490.188;" xml:space="preserve">
<path id="XMLID_102_" d="M481.352,201.068L317.56,37.256c-8.619-8.619-21.597-11.201-32.845-6.542
	C273.457,35.393,266.11,46.37,266.11,58.56v80.003C117.614,148.047-0.018,271.172,0,422.065c0,8.066,0.351,16.033,1.019,23.924
	c0.642,7.609,6.241,13.888,13.725,15.422c7.491,1.533,15.092-2.037,18.693-8.773c45.12-84.605,131.733-143.664,232.673-150.088
	v83.623c0,12.181,7.347,23.169,18.604,27.836c3.717,1.545,7.639,2.3,11.531,2.3c7.832,0,15.549-3.067,21.314-8.831l163.792-163.811
	C493.134,231.913,493.134,212.821,481.352,201.068z"/>
<g>
</g>
<g>
</g>
<g>
</g>
<g>
</g>
<g>
</g>
<g>
</g>
<g>
</g>
<g>
</g>
<g>
</g>
<g>
</g>
<g>
</g>
<g>
</g>
<g>
</g>
<g>
</g>
<g>
</g>
</svg>
