<?xml version="1.0" encoding="iso-8859-1"?>
<!-- Generator: Adobe Illustrator 18.0.0, SVG Export Plug-In . SVG Version: 6.00 Build 0)  -->
<!DOCTYPE svg PUBLIC "-//W3C//DTD SVG 1.1//EN" "http://www.w3.org/Graphics/SVG/1.1/DTD/svg11.dtd">
<svg version="1.1" id="Capa_1" xmlns="http://www.w3.org/2000/svg" xmlns:xlink="http://www.w3.org/1999/xlink" x="0px" y="0px"
	 viewBox="0 0 497.147 497.147" style="enable-background:new 0 0 497.147 497.147;" xml:space="preserve">
<path id="XMLID_96_" d="M494.212,243.84l-183.037-90.466c-1.633-0.807-3.577-0.713-5.122,0.251
	c-1.547,0.964-2.494,2.658-2.494,4.482v46.002H44.465C19.906,204.109,0,224.015,0,248.573c0,24.561,19.906,44.465,44.465,44.465
	H303.56v46.001c0,1.825,0.946,3.518,2.494,4.482c1.545,0.964,3.489,1.06,5.122,0.251l183.037-90.467
	c1.796-0.895,2.935-2.727,2.935-4.732C497.147,246.566,496.009,244.734,494.212,243.84z"/>
<g>
</g>
<g>
</g>
<g>
</g>
<g>
</g>
<g>
</g>
<g>
</g>
<g>
</g>
<g>
</g>
<g>
</g>
<g>
</g>
<g>
</g>
<g>
</g>
<g>
</g>
<g>
</g>
<g>
</g>
</svg>
