<?xml version="1.0" encoding="iso-8859-1"?>
<!-- Generator: Adobe Illustrator 18.0.0, SVG Export Plug-In . SVG Version: 6.00 Build 0)  -->
<!DOCTYPE svg PUBLIC "-//W3C//DTD SVG 1.1//EN" "http://www.w3.org/Graphics/SVG/1.1/DTD/svg11.dtd">
<svg version="1.1" id="Capa_1" xmlns="http://www.w3.org/2000/svg" xmlns:xlink="http://www.w3.org/1999/xlink" x="0px" y="0px"
	 viewBox="0 0 490.836 490.836" style="enable-background:new 0 0 490.836 490.836;" xml:space="preserve">
<path id="XMLID_90_" d="M476.098,209.79L350.772,84.439c-14.203-14.213-36.185-18.679-54.92-10.937
	c-18.872,7.838-31.071,26.092-31.071,46.494v30.168l-232.84-40.519c-7.849-1.376-16.049,0.816-22.23,5.991
	C3.551,120.822,0,128.456,0,136.51v217.727c0,8.053,3.551,15.688,9.711,20.874c6.182,5.184,14.382,7.376,22.23,5.991l232.84-40.52
	v30.178c0,20.419,12.199,38.665,31.071,46.485c6.144,2.558,12.645,3.854,19.286,3.854c13.227,0,26.207-5.372,35.601-14.757
	l125.358-125.376c9.5-9.499,14.738-22.143,14.738-35.592C490.836,231.931,485.598,219.289,476.098,209.79z"/>
<g>
</g>
<g>
</g>
<g>
</g>
<g>
</g>
<g>
</g>
<g>
</g>
<g>
</g>
<g>
</g>
<g>
</g>
<g>
</g>
<g>
</g>
<g>
</g>
<g>
</g>
<g>
</g>
<g>
</g>
</svg>
