<?xml version="1.0" encoding="iso-8859-1"?>
<!-- Generator: Adobe Illustrator 18.0.0, SVG Export Plug-In . SVG Version: 6.00 Build 0)  -->
<!DOCTYPE svg PUBLIC "-//W3C//DTD SVG 1.1//EN" "http://www.w3.org/Graphics/SVG/1.1/DTD/svg11.dtd">
<svg version="1.1" id="Capa_1" xmlns="http://www.w3.org/2000/svg" xmlns:xlink="http://www.w3.org/1999/xlink" x="0px" y="0px"
	 viewBox="0 0 493.718 493.718" style="enable-background:new 0 0 493.718 493.718;" xml:space="preserve">
<path id="XMLID_67_" d="M434.653,30.355H325.755l17.598,8.7c13.312,6.53,21.919,20.35,21.919,35.188s-8.607,28.655-21.833,35.144
	l-17.684,8.744h65.009v287.81h-287.81v-287.81h77.078v26.264c0,1.414,0.729,2.725,1.93,3.471c1.208,0.746,2.708,0.823,3.976,0.196
	c15.054-7.439,141.943-70.151,141.943-70.151c1.398-0.687,2.28-2.11,2.28-3.669c0-1.561-0.882-2.985-2.28-3.669
	c0,0-126.273-62.404-141.943-70.153c-1.268-0.627-2.769-0.55-3.976,0.196c-1.201,0.746-1.93,2.058-1.93,3.473v26.265H59.066
	c-24.242,0-43.888,19.646-43.888,43.888v375.587c0,24.242,19.646,43.888,43.888,43.888h375.587
	c24.242,0,43.888-19.646,43.888-43.888V74.244C478.541,50.001,458.895,30.355,434.653,30.355z"/>
<g>
</g>
<g>
</g>
<g>
</g>
<g>
</g>
<g>
</g>
<g>
</g>
<g>
</g>
<g>
</g>
<g>
</g>
<g>
</g>
<g>
</g>
<g>
</g>
<g>
</g>
<g>
</g>
<g>
</g>
</svg>
