<?xml version="1.0" encoding="iso-8859-1"?>
<!-- Generator: Adobe Illustrator 18.0.0, SVG Export Plug-In . SVG Version: 6.00 Build 0)  -->
<!DOCTYPE svg PUBLIC "-//W3C//DTD SVG 1.1//EN" "http://www.w3.org/Graphics/SVG/1.1/DTD/svg11.dtd">
<svg version="1.1" id="Capa_1" xmlns="http://www.w3.org/2000/svg" xmlns:xlink="http://www.w3.org/1999/xlink" x="0px" y="0px"
	 viewBox="0 0 493.583 493.583" style="enable-background:new 0 0 493.583 493.583;" xml:space="preserve">
<g id="XMLID_58_">
	<path id="XMLID_62_" d="M69.922,140.274c14.226,0,26.948,7.936,33.101,20.561l8.234,16.664v-66.242h72.596v24.737
		c0,1.332,0.695,2.568,1.824,3.27c1.131,0.701,2.534,0.774,3.73,0.185l133.692-66.072c1.325-0.646,2.148-1.985,2.148-3.456
		c0-1.47-0.823-2.81-2.148-3.455L189.406,0.396c-1.195-0.588-2.599-0.516-3.73,0.187c-1.129,0.701-1.824,1.936-1.824,3.269v24.737
		H69.922c-22.831,0-41.336,18.503-41.336,41.335v107.569l8.155-16.503C42.894,148.403,55.907,140.274,69.922,140.274z"/>
	<path id="XMLID_61_" d="M423.661,353.311c-13.982,0-26.997-8.105-33.103-20.563l-8.232-16.662v66.24H309.73v-24.736
		c0-1.331-0.694-2.566-1.823-3.27c-1.131-0.702-2.535-0.775-3.73-0.179l-133.692,66.065c-1.324,0.645-2.132,1.985-2.132,3.454
		c0,1.47,0.808,2.811,2.132,3.456l133.692,66.064c1.195,0.598,2.6,0.525,3.73-0.177c1.129-0.703,1.823-1.938,1.823-3.271v-24.737
		h113.932c22.83,0,41.336-18.503,41.336-41.335V316.076l-8.203,16.59C450.657,345.205,437.645,353.311,423.661,353.311z"/>
	<path id="XMLID_60_" d="M135.284,423.66c0-14.232,7.928-26.947,20.538-33.1l16.646-8.235h-61.212v-67.59h24.736
		c1.324,0,2.568-0.685,3.279-1.815c0.694-1.14,0.759-2.551,0.177-3.746L73.378,175.49c-0.645-1.325-1.97-2.148-3.456-2.148
		c-0.726,0-1.437,0.21-2.034,0.581c-0.597,0.372-1.098,0.904-1.42,1.567L0.396,309.174c-0.581,1.195-0.517,2.607,0.178,3.746
		c0.711,1.13,1.954,1.815,3.277,1.815h24.735V423.66c0,22.832,18.505,41.335,41.336,41.335h102.563l-16.503-8.161
		C143.212,450.609,135.284,437.895,135.284,423.66z"/>
	<path id="XMLID_59_" d="M493.01,180.671c-0.711-1.129-1.954-1.815-3.276-1.815h-24.736V69.923
		c0-22.831-18.506-41.335-41.336-41.335H321.082l16.582,8.194c12.546,6.152,20.65,19.167,20.65,33.141
		c0,13.974-8.104,26.989-20.553,33.101l-16.665,8.234h61.229v67.598H357.59c-1.325,0-2.568,0.686-3.279,1.815
		c-0.694,1.139-0.759,2.551-0.177,3.746l66.071,133.678c0.645,1.315,1.985,2.147,3.456,2.147c1.468,0,2.809-0.832,3.455-2.147
		l66.07-133.678C493.769,183.222,493.704,181.811,493.01,180.671z"/>
</g>
<g>
</g>
<g>
</g>
<g>
</g>
<g>
</g>
<g>
</g>
<g>
</g>
<g>
</g>
<g>
</g>
<g>
</g>
<g>
</g>
<g>
</g>
<g>
</g>
<g>
</g>
<g>
</g>
<g>
</g>
</svg>
