<?xml version="1.0" encoding="iso-8859-1"?>
<!-- Generator: Adobe Illustrator 18.0.0, SVG Export Plug-In . SVG Version: 6.00 Build 0)  -->
<!DOCTYPE svg PUBLIC "-//W3C//DTD SVG 1.1//EN" "http://www.w3.org/Graphics/SVG/1.1/DTD/svg11.dtd">
<svg version="1.1" id="Capa_1" xmlns="http://www.w3.org/2000/svg" xmlns:xlink="http://www.w3.org/1999/xlink" x="0px" y="0px"
	 viewBox="0 0 492.205 492.205" style="enable-background:new 0 0 492.205 492.205;" xml:space="preserve">
<g id="XMLID_63_">
	<path id="XMLID_65_" d="M418.19,373.983c-14.792,0-28.567-8.579-35.036-21.764l-8.718-17.631v70.109H87.508V117.769h76.852v26.183
		c0,1.411,0.726,2.719,1.923,3.462c1.204,0.743,2.7,0.819,3.964,0.197c14.972-7.402,141.5-69.938,141.5-69.938
		c1.393-0.685,2.272-2.102,2.272-3.658c0-1.556-0.879-2.973-2.272-3.657c0,0-125.913-62.237-141.5-69.938
		c-1.264-0.623-2.76-0.545-3.964,0.197c-1.197,0.743-1.923,2.051-1.923,3.462v26.184H43.754C19.587,30.261,0,49.848,0,74.014V448.45
		c0,24.17,19.587,43.755,43.754,43.755H418.19c24.167,0,43.754-19.585,43.754-43.755V334.589l-8.673,17.545
		C446.759,365.404,432.982,373.983,418.19,373.983z"/>
	<path id="XMLID_64_" d="M491.59,191.244c-0.744-1.196-2.051-1.922-3.462-1.922h-26.184V74.014
		c0-24.166-19.587-43.753-43.754-43.753H309.626l17.544,8.674c13.271,6.513,21.852,20.288,21.852,35.079
		c0,14.793-8.581,28.568-21.767,35.036l-17.629,8.719h64.81v71.553h-26.184c-1.411,0-2.718,0.726-3.46,1.922
		c-0.744,1.205-0.82,2.7-0.198,3.966c7.402,14.973,69.938,141.499,69.938,141.499c0.685,1.391,2.103,2.272,3.658,2.272
		c1.556,0,2.974-0.882,3.658-2.272c0,0,62.238-125.912,69.938-141.499C492.409,193.944,492.332,192.449,491.59,191.244z"/>
</g>
<g>
</g>
<g>
</g>
<g>
</g>
<g>
</g>
<g>
</g>
<g>
</g>
<g>
</g>
<g>
</g>
<g>
</g>
<g>
</g>
<g>
</g>
<g>
</g>
<g>
</g>
<g>
</g>
<g>
</g>
</svg>
