<?xml version="1.0" encoding="iso-8859-1"?>
<!-- Generator: Adobe Illustrator 18.0.0, SVG Export Plug-In . SVG Version: 6.00 Build 0)  -->
<!DOCTYPE svg PUBLIC "-//W3C//DTD SVG 1.1//EN" "http://www.w3.org/Graphics/SVG/1.1/DTD/svg11.dtd">
<svg version="1.1" id="Capa_1" xmlns="http://www.w3.org/2000/svg" xmlns:xlink="http://www.w3.org/1999/xlink" x="0px" y="0px"
	 viewBox="0 0 495.558 495.558" style="enable-background:new 0 0 495.558 495.558;" xml:space="preserve">
<g id="XMLID_49_">
	<g id="XMLID_56_">
		<path id="XMLID_57_" d="M484.212,220.391l-66.594-66.593l8.004,23.669c3.762,11.137,0.775,23.638-7.343,31.61
			c-5.745,5.802-13.734,9.126-21.902,9.126c-3.42,0-6.793-0.563-9.876-1.63l-23.663-8.006l39.205,39.213l-36.992,36.984
			l-11.654-11.646c-0.772-0.79-1.92-1.113-3.001-0.863c-1.081,0.259-1.954,1.049-2.323,2.098
			c-3.924,11.603-23.14,68.407-36.471,107.826c-2.263,6.691,4.131,13.069,10.822,10.806c104.003-35.187,95.077-32.12,107.832-36.447
			c1.065-0.354,1.855-1.234,2.098-2.325c0.258-1.081-0.065-2.218-0.84-3.01l-11.67-11.661l64.368-64.373
			C499.334,260.046,499.334,235.514,484.212,220.391z"/>
	</g>
	<g id="XMLID_54_">
		<path id="XMLID_55_" d="M65.302,139.03c-1.064,0.355-1.855,1.235-2.099,2.323c-0.257,1.083,0.065,2.221,0.84,3.013l11.67,11.659
			l-64.366,64.366c-15.122,15.123-15.122,39.655,0,54.778l66.609,66.601l-8.02-23.677c-3.761-11.136-0.938-23.249,7.504-31.771
			c5.843-5.786,13.559-8.965,21.739-8.965c3.422,0,6.796,0.564,9.878,1.63l23.661,8.006l-39.204-39.212l36.976-36.985l11.67,11.654
			c0.774,0.789,1.92,1.114,3.002,0.862c1.08-0.258,1.953-1.048,2.323-2.098c3.904-11.542,24.571-72.635,36.499-107.877
			c2.265-6.692-4.115-13.08-10.808-10.815C135.193,115.378,65.998,138.794,65.302,139.03z"/>
	</g>
	<g id="XMLID_52_">
		<path id="XMLID_53_" d="M321.198,422.606c-3.244,1.113-6.616,1.68-10.039,1.68c-8.248,0-15.994-3.205-21.886-9.12
			c-8.312-8.367-11.119-20.505-7.326-31.634l8.02-23.661l-42.188,42.174l-39.947-39.938l11.671-11.662
			c0.79-0.781,1.097-1.929,0.838-3.01c-0.242-1.089-1.033-1.961-2.098-2.323c-9.006-3.037-74.033-25.05-107.851-36.497
			c-6.691-2.266-13.073,4.12-10.81,10.813c10.973,32.439,33.232,98.238,36.509,107.858c0.355,1.059,1.227,1.849,2.306,2.108
			c1.099,0.249,2.229-0.073,3.021-0.865l11.637-11.652l67.335,67.336c7.569,7.561,17.479,11.346,27.39,11.346
			c9.909,0,19.819-3.784,27.389-11.346l69.563-69.571L321.198,422.606z"/>
	</g>
	<g id="XMLID_50_">
		<path id="XMLID_51_" d="M357.158,66.159c-1.098-0.25-2.228,0.081-3.019,0.864l-11.636,11.662l-67.335-67.337
			c-15.139-15.131-39.639-15.131-54.778,0l-69.563,69.563l23.515-7.956c3.244-1.113,6.617-1.679,10.055-1.679
			c8.184,0,15.899,3.18,21.888,9.119c8.313,8.368,11.119,20.506,7.327,31.625l-8.006,23.67l42.174-42.174l39.944,39.938
			l-11.669,11.662c-0.79,0.79-1.098,1.929-0.854,3.01c0.259,1.089,1.05,1.961,2.115,2.316c10.538,3.564,62.091,20.99,107.801,36.454
			c6.691,2.264,13.077-4.113,10.816-10.804c-11.627-34.403-33.289-98.491-36.466-107.826
			C359.11,67.207,358.239,66.418,357.158,66.159z"/>
	</g>
</g>
<g>
</g>
<g>
</g>
<g>
</g>
<g>
</g>
<g>
</g>
<g>
</g>
<g>
</g>
<g>
</g>
<g>
</g>
<g>
</g>
<g>
</g>
<g>
</g>
<g>
</g>
<g>
</g>
<g>
</g>
</svg>
