<?xml version="1.0" encoding="iso-8859-1"?>
<!-- Generator: Adobe Illustrator 18.0.0, SVG Export Plug-In . SVG Version: 6.00 Build 0)  -->
<!DOCTYPE svg PUBLIC "-//W3C//DTD SVG 1.1//EN" "http://www.w3.org/Graphics/SVG/1.1/DTD/svg11.dtd">
<svg version="1.1" id="Capa_1" xmlns="http://www.w3.org/2000/svg" xmlns:xlink="http://www.w3.org/1999/xlink" x="0px" y="0px"
	 viewBox="0 0 492.635 492.635" style="enable-background:new 0 0 492.635 492.635;" xml:space="preserve">
<g id="XMLID_36_">
	<g id="XMLID_38_">
		<path id="XMLID_39_" d="M481.354,219.091l-66.2-66.199l7.957,23.529c3.74,11.069,0.771,23.496-7.301,31.423
			c-5.709,5.769-13.652,9.072-21.771,9.072c-3.4,0-6.754-0.561-9.819-1.62l-23.521-7.959l38.974,38.981L246.316,399.672
			L92.962,246.319L246.316,92.964l39.713,39.703l-11.604,11.592c-0.785,0.786-1.09,1.918-0.85,2.992
			c0.258,1.083,1.045,1.95,2.102,2.311l112.389,38.014c4.513,1.526,8.82-2.78,7.294-7.294L357.344,67.864
			c-0.353-1.052-1.218-1.837-2.292-2.095c-1.092-0.248-2.216,0.08-3.003,0.859l-11.567,11.593l-66.938-66.939
			c-15.051-15.042-39.404-15.042-54.455,0L11.28,219.091c-15.032,15.033-15.032,39.422,0,54.454l207.81,207.811
			c7.525,7.517,17.377,11.279,27.227,11.279c9.852,0,19.703-3.763,27.229-11.279l207.81-207.811
			C496.388,258.513,496.388,234.124,481.354,219.091z"/>
	</g>
	<line id="XMLID_37_" x1="397.072" y1="185.222" x2="397.072" y2="185.213"/>
</g>
<g>
</g>
<g>
</g>
<g>
</g>
<g>
</g>
<g>
</g>
<g>
</g>
<g>
</g>
<g>
</g>
<g>
</g>
<g>
</g>
<g>
</g>
<g>
</g>
<g>
</g>
<g>
</g>
<g>
</g>
</svg>
