<?xml version="1.0" encoding="iso-8859-1"?>
<!-- Generator: Adobe Illustrator 18.0.0, SVG Export Plug-In . SVG Version: 6.00 Build 0)  -->
<!DOCTYPE svg PUBLIC "-//W3C//DTD SVG 1.1//EN" "http://www.w3.org/Graphics/SVG/1.1/DTD/svg11.dtd">
<svg version="1.1" id="Capa_1" xmlns="http://www.w3.org/2000/svg" xmlns:xlink="http://www.w3.org/1999/xlink" x="0px" y="0px"
	 viewBox="0 0 491.84 491.84" style="enable-background:new 0 0 491.84 491.84;" xml:space="preserve">
<g id="XMLID_34_">
	<path id="XMLID_35_" d="M486.497,401.265l-71.241-122.217l2.294,24.199c1.189,11.924-4.673,23.624-14.583,29.605
		c-4.976,3.1-10.694,4.736-16.542,4.736c-5.853,0-11.563-1.637-16.556-4.736l-22.218-13.863l36.602,62.788H108.439L248.02,148.054
		l45.794,78.563l-16.252,10.048c-0.959,0.591-1.551,1.644-1.551,2.77c0,1.126,0.577,2.172,1.534,2.771l102.196,63.79
		c4.326,2.7,9.872-0.73,9.389-5.807L378.93,193.033c-1.312-13.895-1.998-14.887-3.013-15.397c-0.999-0.495-2.205-0.439-3.163,0.151
		l-12.148,7.516l-78.258-134.27c-6.989-12.004-19.808-19.415-33.704-19.486c-0.072,0-0.136,0-0.208,0
		c-13.816,0-26.619,7.261-33.71,19.129L5.55,400.907c-7.244,12.132-7.403,27.217-0.439,39.509
		c6.98,12.29,20.015,19.878,34.15,19.878h413.318c14.056,0,27.042-7.516,34.038-19.694
		C493.628,428.412,493.573,413.405,486.497,401.265z"/>
</g>
<g>
</g>
<g>
</g>
<g>
</g>
<g>
</g>
<g>
</g>
<g>
</g>
<g>
</g>
<g>
</g>
<g>
</g>
<g>
</g>
<g>
</g>
<g>
</g>
<g>
</g>
<g>
</g>
<g>
</g>
</svg>
