<?xml version="1.0" encoding="iso-8859-1"?>
<!-- Generator: Adobe Illustrator 18.0.0, SVG Export Plug-In . SVG Version: 6.00 Build 0)  -->
<!DOCTYPE svg PUBLIC "-//W3C//DTD SVG 1.1//EN" "http://www.w3.org/Graphics/SVG/1.1/DTD/svg11.dtd">
<svg version="1.1" id="Capa_1" xmlns="http://www.w3.org/2000/svg" xmlns:xlink="http://www.w3.org/1999/xlink" x="0px" y="0px"
	 viewBox="0 0 494.005 494.005" style="enable-background:new 0 0 494.005 494.005;" xml:space="preserve">
<path id="XMLID_23_" d="M491.168,197.186l-135.297-65.73c-1.216-0.592-2.64-0.527-3.79,0.169c-1.149,0.704-1.845,1.934-1.845,3.262
	v25h-6.15c-20.022,0-39.008,4.28-56.197,11.823V140.68h25.429c1.343,0,2.605-0.688,3.318-1.813c0.711-1.126,0.775-2.532,0.178-3.723
	L249.981,2.128C249.316,0.825,247.973,0,246.486,0c-1.49,0-2.85,0.825-3.499,2.128l-66.895,133.017
	c-0.6,1.19-0.533,2.597,0.178,3.723c0.713,1.125,1.977,1.813,3.318,1.813h25.429v30.503c-16.898-7.235-35.513-11.297-55.097-11.297
	h-6.151v-25c0-1.328-0.694-2.558-1.844-3.262c-1.151-0.696-2.574-0.761-3.79-0.169L2.838,197.186
	c-1.328,0.639-2.17,1.982-2.17,3.439c0,1.457,0.842,2.791,2.17,3.431l135.297,65.748c1.216,0.591,2.639,0.518,3.79-0.17
	c1.15-0.704,1.844-1.934,1.844-3.262v-25.016h6.151c28.827,0,52.311,21.73,55.097,49.353l0.55,203.296h82.873V296.066
	c0-30.163,24.959-54.71,55.647-54.71h6.15v25.016c0,1.328,0.695,2.558,1.845,3.262c1.15,0.688,2.574,0.761,3.79,0.17l135.297-65.748
	c1.327-0.64,2.169-1.974,2.169-3.431C493.337,199.168,492.495,197.824,491.168,197.186z"/>
<g>
</g>
<g>
</g>
<g>
</g>
<g>
</g>
<g>
</g>
<g>
</g>
<g>
</g>
<g>
</g>
<g>
</g>
<g>
</g>
<g>
</g>
<g>
</g>
<g>
</g>
<g>
</g>
<g>
</g>
</svg>
