<?xml version="1.0" encoding="iso-8859-1"?>
<!-- Generator: Adobe Illustrator 18.0.0, SVG Export Plug-In . SVG Version: 6.00 Build 0)  -->
<!DOCTYPE svg PUBLIC "-//W3C//DTD SVG 1.1//EN" "http://www.w3.org/Graphics/SVG/1.1/DTD/svg11.dtd">
<svg version="1.1" id="Capa_1" xmlns="http://www.w3.org/2000/svg" xmlns:xlink="http://www.w3.org/1999/xlink" x="0px" y="0px"
	 viewBox="0 0 495.002 495.002" style="enable-background:new 0 0 495.002 495.002;" xml:space="preserve">
<path id="XMLID_12_" d="M431.552,183.655c-1.676-1.479-4.148-1.634-6.005-0.382l-35.622,23.995v-43.182
	C389.925,73.605,316.319,0,225.838,0C135.357,0,61.751,73.605,61.751,164.087v330.915h83.319V164.087
	c0-44.532,36.226-80.767,80.768-80.767c44.54,0,80.765,36.234,80.765,80.767v43.182l-35.605-23.986
	c-1.855-1.254-4.328-1.098-6.006,0.373c-1.693,1.474-2.18,3.906-1.188,5.916l80.033,161.914c0.83,1.685,2.539,2.751,4.427,2.751
	c1.889,0,3.597-1.066,4.427-2.751l80.049-161.914C433.734,187.561,433.245,185.129,431.552,183.655z"/>
<g>
</g>
<g>
</g>
<g>
</g>
<g>
</g>
<g>
</g>
<g>
</g>
<g>
</g>
<g>
</g>
<g>
</g>
<g>
</g>
<g>
</g>
<g>
</g>
<g>
</g>
<g>
</g>
<g>
</g>
</svg>
