<?xml version="1.0" encoding="iso-8859-1"?>
<!-- Generator: Adobe Illustrator 16.0.0, SVG Export Plug-In . SVG Version: 6.00 Build 0)  -->
<!DOCTYPE svg PUBLIC "-//W3C//DTD SVG 1.1//EN" "http://www.w3.org/Graphics/SVG/1.1/DTD/svg11.dtd">
<svg version="1.1" id="Capa_1" xmlns="http://www.w3.org/2000/svg" xmlns:xlink="http://www.w3.org/1999/xlink" x="0px" y="0px"
	 width="490.647px" height="490.647px" viewBox="0 0 490.647 490.647" style="enable-background:new 0 0 490.647 490.647;"
	 xml:space="preserve">
<g>
	<g>
		<path d="M416.069,256.777c-13.04,0-25.299,3.39-35.971,9.293l-46.306-22.566l3.896-6.578c3.854,1.521,10.604,3.611,18.582,3.611
			c11.609,0,21.761-4.282,30.192-12.71c12.402-12.405,22.261-14.651,28.781-16.142c4.476-1.02,8.708-1.986,10.379-6.326
			c1.932-5.034,1.219-11.534,0.461-15.563l25.351-8.946l-3.795-11.385c21.572-5.32,25.131-8.352,24.634-12.818
			c-0.176-1.633-0.484-4.286-8.095-5.715c1.11-1.342,1.522-2.757,1.17-4.366c-0.966-4.482-6.853-4.482-9.682-4.482
			c-4.071,0-8.977,0.527-11.485,0.833l-9.097-7.073c7.758-12.695,5.105-20.303,4.753-21.189l-0.967-2.418l-5.001-0.078
			c-22.329,0-33.946,6.75-46.241,13.904c-13.894,8.069-29.623,17.222-65.578,19.987c-7.838,0.605-15.656,0.908-23.247,0.908
			c-47.652,0-76.221-12.002-81.976-14.669c-3.28-5.73-10.315-8.644-20.937-8.644c-3.242,0-6.562,0.298-9.812,0.719
			c3.587-5.454,7.244-10.862,11.169-16.098h47.103c15.188,0,15.188-23.551,0-23.551h-52.016c-4.983,0-8.3,2.553-10.009,5.957
			c-1.525,0.988-2.913,2.268-4.082,3.801c-5.646,7.418-10.834,15.126-15.767,23c-0.022,0-0.046,0-0.068,0
			c-44.907,4.09-79.838,41.403-81.395,43.084l-6.067,6.586h0.839c-21.604,14.144-42.078,32.636-40.727,37.792l0.881,3.016
			l4.174-0.088l0.786-0.36c4.043-1.878,12.002-2.906,17.02-3.347c0.016,0.024,0.038,0.059,0.054,0.083
			c0.974,1.411,2.591,2.637,4.53,3.687c-1.528,4.963-2.879,10.357-4.051,15.803l-24.279,0.07c-1.185-3.258-3.304-6.188-7.444-5.604
			c-4.529,0.637-8.109,1.138-5.869,38.111c0.475,7.918,3.595,13.24,7.55,16.582C11.139,286.56,0,307.667,0,331.355
			c0,41.124,33.46,74.578,74.578,74.578s74.578-33.454,74.578-74.578c0-13.232-3.499-25.651-9.572-36.428
			c2.254-0.385,4.899-0.646,8.017-0.646c8.725,0,18.951,1.948,30.396,5.795c14.118,4.745,30.531,7.146,48.785,7.146
			c22.355,0,39.273-3.603,39.978-3.755l2.688-0.846l0.445-2.613c0.316,0,2.063,0.177,5.971,3.567
			c4.938,4.268,13.317,6.443,24.918,6.443c12.451,0,24.418-2.444,28.061-3.763c5.871-2.116,9.441-11.99,11.205-18.566l12.174,5.317
			c-6.769,11.217-10.731,24.313-10.731,38.34c0,41.116,33.458,74.582,74.578,74.582c41.124,0,74.578-33.466,74.578-74.582
			C490.647,290.226,457.193,256.777,416.069,256.777z M115.284,268.935l18.284-15.048c12.591,7.643,25.978,16.307,34.188,22.257
			c-1.272-0.116-2.553-0.184-3.847-0.184c-12.024,0-22.893,5.241-30.324,9.958C128.472,279.294,122.3,273.536,115.284,268.935z
			 M108.018,206.425c3.316,0.832,6.698,2.023,9.684,3.166c2.952,1.128,5.559,2.124,7.785,2.653
			c1.272,5.344-3.23,27.515-8.556,46.067l-2.839,9.907c-3.669-2.301-7.522-4.316-11.573-5.959
			C103.987,243.608,106.295,225.046,108.018,206.425z M75.434,211.653c-0.817,0.713-1.641,1.461-2.473,2.292
			c0.252-0.886,0.541-1.639,0.81-2.495C74.326,211.527,74.876,211.593,75.434,211.653z M83.034,220.604
			c-1.28,12.128-2.561,24.265-3.625,36.421c-1.603-0.108-3.206-0.248-4.831-0.248c-3.236,0-6.398,0.276-9.522,0.677
			c2.347-14.406,7.246-24.227,12.309-30.759l4.202-3.027l-1.665,0.008C80.968,222.509,82.01,221.505,83.034,220.604z
			 M32.099,235.587l12.868-0.038l-12.804,9.235C32.083,241.438,32.069,238.298,32.099,235.587z M33.049,258.672l21.957-15.844
			c-1.058,6.959-1.797,12.99-2.234,16.917c-0.016,0.101-0.024,0.205-0.034,0.305c-4.631,1.419-9.075,3.29-13.275,5.543
			C37.485,265.205,34.269,263.83,33.049,258.672z"/>
	</g>
</g>
<g>
</g>
<g>
</g>
<g>
</g>
<g>
</g>
<g>
</g>
<g>
</g>
<g>
</g>
<g>
</g>
<g>
</g>
<g>
</g>
<g>
</g>
<g>
</g>
<g>
</g>
<g>
</g>
<g>
</g>
</svg>
