<?xml version="1.0" encoding="iso-8859-1"?>
<!-- Generator: Adobe Illustrator 16.0.0, SVG Export Plug-In . SVG Version: 6.00 Build 0)  -->
<!DOCTYPE svg PUBLIC "-//W3C//DTD SVG 1.1//EN" "http://www.w3.org/Graphics/SVG/1.1/DTD/svg11.dtd">
<svg version="1.1" id="Capa_1" xmlns="http://www.w3.org/2000/svg" xmlns:xlink="http://www.w3.org/1999/xlink" x="0px" y="0px"
	 width="332.725px" height="332.726px" viewBox="0 0 332.725 332.726" style="enable-background:new 0 0 332.725 332.726;"
	 xml:space="preserve">
<g>
	<g>
		<path d="M273.736,146.978c-24.974,0-46.271,15.547-54.877,37.466c-5.303-0.886-9.776-1.191-12.506-0.461l-0.439-6.628
			c0,0,10.604-1.766,12.37-17.232c1.766-15.467,34.021-51.259,59.652-55.235c25.626-3.977,47.721-12.816,47.721-12.816
			s-16.347,3.091-47.281,6.628c-30.934,3.536-60.537,48.161-79.535,49.933c-18.999,1.766-33.744-10.52-77.771-44.631
			c-1.613-1.245-3.143-1.791-4.539-1.926l3.153-7.327c-5.333-2.931-9.002-8.536-9.002-15.048c0-0.769,0.127-1.507,0.228-2.252
			c-0.414,0.492-0.805,1.007-1.077,1.636L81.02,145.971c-6.812-2.747-14.235-4.295-22.036-4.295C26.411,141.676,0,168.081,0,200.662
			c0,32.575,26.411,58.989,58.989,58.989s58.989-26.408,58.989-58.989c0-19.294-9.3-36.366-23.612-47.126l14.92-34.639
			c2.89,3.854,16.257,22.328,23.719,44.316c8.394,24.746,14.582,46.836,52.139,38.442c9.595-2.148,19.909-2.578,29.955-2.045
			c-0.218,2.087-0.353,4.204-0.353,6.354c0,32.575,26.409,58.989,58.989,58.989c32.581,0,58.989-26.408,58.989-58.989
			C332.725,173.379,306.317,146.978,273.736,146.978z M102.071,200.662c0,23.752-19.328,43.082-43.082,43.082
			s-43.082-19.324-43.082-43.082c0-23.757,19.328-43.084,43.082-43.084c5.556,0,10.853,1.093,15.731,3.016l-15.959,37.05
			c-1.325,3.07-0.217,6.498,2.47,7.658l4.264,1.838c2.688,1.16,5.944-0.393,7.265-3.464l15.053-34.937
			C96.546,176.631,102.071,187.997,102.071,200.662z M273.736,249.047c-23.757,0-43.081-19.325-43.081-43.082
			c0-1.605,0.104-3.19,0.273-4.754c22.458,3.241,40.374,9.725,40.374,9.725s9.725,4.417,13.702-3.536
			c3.977-7.954-8.395-7.954-16.793-9.72c-4.608-0.974-19.33-5.929-33.575-9.693c6.83-14.789,21.764-25.101,39.1-25.101
			c23.758,0,43.082,19.328,43.082,43.08C316.818,229.722,297.494,249.047,273.736,249.047z"/>
		<path d="M116.769,75.559c-0.481,1.295-0.779,2.68-0.779,4.143c0,4.337,2.338,8.096,5.794,10.186
			c1.799,1.087,3.884,1.745,6.136,1.745c6.592,0,11.93-5.339,11.93-11.931s-5.338-11.93-11.93-11.93
			C122.794,67.771,118.46,71.021,116.769,75.559z"/>
	</g>
</g>
<g>
</g>
<g>
</g>
<g>
</g>
<g>
</g>
<g>
</g>
<g>
</g>
<g>
</g>
<g>
</g>
<g>
</g>
<g>
</g>
<g>
</g>
<g>
</g>
<g>
</g>
<g>
</g>
<g>
</g>
</svg>
