<?xml version="1.0" encoding="iso-8859-1"?>
<!-- Generator: Adobe Illustrator 16.0.0, SVG Export Plug-In . SVG Version: 6.00 Build 0)  -->
<!DOCTYPE svg PUBLIC "-//W3C//DTD SVG 1.1//EN" "http://www.w3.org/Graphics/SVG/1.1/DTD/svg11.dtd">
<svg version="1.1" id="Capa_1" xmlns="http://www.w3.org/2000/svg" xmlns:xlink="http://www.w3.org/1999/xlink" x="0px" y="0px"
	 width="464.804px" height="464.803px" viewBox="0 0 464.804 464.803" style="enable-background:new 0 0 464.804 464.803;"
	 xml:space="preserve">
<g>
	<g>
		<path d="M440.939,253.801V136.434c0-4.256-42.703-39.103-46.947-39.103H20.111c-4.254,0-7.7,3.444-7.7,7.7v149.307h35.013
			c8.658,0,15.701,7.037,15.701,15.701v1.932c7.927-3.987,16.839-6.304,26.307-6.304c30.224,0,55.17,22.955,58.376,52.333H286.93
			c-0.008-0.477-0.068-0.949-0.068-1.427c0-32.399,26.357-58.757,58.737-58.757c25.194,0,46.658,15.962,55.002,38.271v-26.586
			c0-8.664,7.037-15.701,15.697-15.701H440.939L440.939,253.801z M196.911,198.922c0,4.336-3.519,7.851-7.851,7.851h-68.691
			c-4.332,0-7.851-3.514-7.851-7.851v-68.691c0-4.33,3.519-7.851,7.851-7.851h68.691c4.332,0,7.851,3.521,7.851,7.851V198.922z
			 M306.814,198.922c0,4.336-3.519,7.851-7.851,7.851h-68.689c-4.332,0-7.851-3.514-7.851-7.851v-68.691
			c0-4.33,3.519-7.851,7.851-7.851h68.689c4.332,0,7.851,3.521,7.851,7.851V198.922z M346.107,208.39
			c-4.54,0-8.219-3.799-8.219-8.478v-70.661c0-4.677,3.679-8.48,8.219-8.48h35.233c4.54,0,41.445,29.863,41.445,34.544v44.589
			c0,4.681-3.679,8.478-8.22,8.478h-68.459V208.39z"/>
		<path d="M89.432,281.385c-21.588,0-39.409,15.901-42.519,36.632c-0.312,2.092-0.525,4.231-0.525,6.407
			c0,23.772,19.27,43.048,43.044,43.048c23.77,0,43.043-19.275,43.043-43.048c0-2.176-0.212-4.315-0.525-6.407
			C128.841,297.302,111.02,281.385,89.432,281.385z"/>
		<path d="M345.599,273.535c-23.764,0-43.036,19.275-43.036,43.039c0,0.489,0.053,0.958,0.068,1.443
			c0.758,23.106,19.681,41.604,42.968,41.604c23.3,0,42.214-18.498,42.979-41.604c0.017-0.485,0.068-0.954,0.068-1.443
			C388.646,292.81,369.383,273.535,345.599,273.535z"/>
		<path d="M55.274,276.724v-6.677c0-4.332-3.519-7.85-7.85-7.85H12.411H7.851c-4.332,0-7.851,3.518-7.851,7.85v39.582
			c0,4.34,3.519,7.851,7.851,7.851H8.18c1.38,0,4.277-0.361,7.574-0.99c7.061-1.343,15.978-3.911,15.978-6.86l1.256-1.282
			l22.295-22.763v-8.86H55.274z"/>
		<path d="M456.953,261.652h-16.014h-24.642c-4.336,0-7.847,3.519-7.847,7.851v40.664c0,4.332,3.511,7.851,7.847,7.851h16.943
			h23.712c4.332,0,7.851-3.519,7.851-7.851v-40.664C464.804,265.17,461.285,261.652,456.953,261.652z"/>
	</g>
</g>
<g>
</g>
<g>
</g>
<g>
</g>
<g>
</g>
<g>
</g>
<g>
</g>
<g>
</g>
<g>
</g>
<g>
</g>
<g>
</g>
<g>
</g>
<g>
</g>
<g>
</g>
<g>
</g>
<g>
</g>
</svg>
