<?xml version="1.0" encoding="iso-8859-1"?>
<!-- Generator: Adobe Illustrator 16.0.0, SVG Export Plug-In . SVG Version: 6.00 Build 0)  -->
<!DOCTYPE svg PUBLIC "-//W3C//DTD SVG 1.1//EN" "http://www.w3.org/Graphics/SVG/1.1/DTD/svg11.dtd">
<svg version="1.1" id="Capa_1" xmlns="http://www.w3.org/2000/svg" xmlns:xlink="http://www.w3.org/1999/xlink" x="0px" y="0px"
	 width="487.805px" height="487.805px" viewBox="0 0 487.805 487.805" style="enable-background:new 0 0 487.805 487.805;"
	 xml:space="preserve">
<g>
	<g>
		<path d="M470.148,306.382c0.438-13.252-0.537-24.906-2.5-35.277c6.163-3.65,10.351-10.383,10.351-18.193
			c0-11.654-9.225-21.105-20.606-21.105c-1.727,0-3.366,0.275-4.953,0.682c-28.557-42.407-81.402-40.916-81.402-40.916
			C354.354,48.302,186.553,76.761,186.553,76.761v31.621c-37.8,0.815-75.552,2.567-113.18,7.301
			c-6.688,0.84-11.341,4.735-11.774,11.776c-1.523,24.8-5.087,48.915-10.638,73.007c-20.877,3.128-20.173,13.489-23.379,34.284
			c-0.912,5.927-1.819,12.719-2.683,19.625h-5.167c-4.33,0-7.849,3.519-7.849,7.851v23.552c0,4.332,3.519,7.85,7.849,7.85h0.779
			c-0.487,4.829-0.779,7.852-0.779,7.852c-26.495,3.927-18.645,32.384-18.645,32.384h45.665
			c6.825-33.014,36.113-57.899,71.11-57.899s64.287,24.886,71.11,57.899h108.981c6.825-33.014,36.115-57.899,71.112-57.899
			s64.283,24.886,71.107,57.899h28.004c0,0,19.629,0,19.629-15.701S470.148,306.382,470.148,306.382z M186.553,191.571
			c0,0-70.42,7.043-111.216,7.782c4.344-20.263,7.237-40.555,8.935-61.281c34.017-3.775,68.124-5.4,102.282-6.142V191.571z"/>
		<path d="M182.627,348.58c0-5.069-0.644-9.982-1.743-14.719c-6.67-28.665-32.326-50.049-63.023-50.049
			c-30.695,0-56.351,21.384-63.021,50.049c-1.1,4.736-1.745,9.649-1.745,14.719c0,35.771,29,64.765,64.766,64.765
			C153.629,413.345,182.627,384.351,182.627,348.58z"/>
		<path d="M369.073,413.345c35.767,0,64.769-28.994,64.769-64.765c0-5.069-0.646-9.982-1.752-14.719
			c-6.668-28.665-32.319-50.049-63.017-50.049c-30.696,0-56.356,21.384-63.024,50.049c-1.095,4.736-1.739,9.649-1.739,14.719
			C304.309,384.351,333.302,413.345,369.073,413.345z"/>
	</g>
</g>
<g>
</g>
<g>
</g>
<g>
</g>
<g>
</g>
<g>
</g>
<g>
</g>
<g>
</g>
<g>
</g>
<g>
</g>
<g>
</g>
<g>
</g>
<g>
</g>
<g>
</g>
<g>
</g>
<g>
</g>
</svg>
