<?xml version="1.0" encoding="iso-8859-1"?>
<!-- Generator: Adobe Illustrator 16.0.0, SVG Export Plug-In . SVG Version: 6.00 Build 0)  -->
<!DOCTYPE svg PUBLIC "-//W3C//DTD SVG 1.1//EN" "http://www.w3.org/Graphics/SVG/1.1/DTD/svg11.dtd">
<svg version="1.1" id="Capa_1" xmlns="http://www.w3.org/2000/svg" xmlns:xlink="http://www.w3.org/1999/xlink" x="0px" y="0px"
	 width="485.209px" height="485.208px" viewBox="0 0 485.209 485.208" style="enable-background:new 0 0 485.209 485.208;"
	 xml:space="preserve">
<g>
	<g>
		<path d="M13.125,252.186c-21.101,21.107-10.299,0-10.794,37.289c-0.425,32.348,19.43,32.945,24.714,32.536
			c-1.036-3.971-1.649-8.119-1.649-12.411c0-27.113,22.059-49.179,49.175-49.179c27.112,0,49.173,22.065,49.173,49.179
			c0,4.316-0.609,8.488-1.663,12.476c73.386,0.052,175.445-0.141,251.794-1.307c-0.838-3.595-1.326-7.321-1.326-11.169
			c0-27.113,22.057-49.179,49.171-49.179c27.118,0,49.18,22.065,49.18,49.179c0,2.737-0.285,5.398-0.714,8.02
			c5.458-0.489,8.788-1.034,9.546-1.64c9.814-7.851,5.887-56.917-7.366-67.212c-13.248-10.299-5.891-15.701-6.371-34.839
			c-0.269-10.315-8.784-24.988-16.591-36.377c6.211-1.805,12.291-3.903,18.102-6.889c0.733-0.375,1.187-0.886,1.699-1.365l0,0
			c2.408-2.238,2.641-5.328,1.41-8.022c-0.028-0.11-0.084-0.21-0.128-0.323c-0.137-0.279-0.261-0.555-0.437-0.824
			c-1.135-2.36-3.242-4.294-6.517-4.592c-9.445-0.848-18.751-1.176-27.844-4.136c-1.046-0.336-1.987-0.378-2.893-0.329l-0.161-0.449
			c0,0-71.144-18.152-160.93-16.188c-89.799,1.961-92.247,55.926-169.771,61.328C24.414,201.164,13.125,252.186,13.125,252.186z"/>
		<path d="M74.57,268.264c-22.822,0-41.324,18.506-41.324,41.328c0,4.309,0.848,8.38,2.074,12.291
			c5.258,16.779,20.736,29.034,39.259,29.034c18.45,0,33.889-12.167,39.203-28.857c1.264-3.956,2.128-8.096,2.128-12.468
			C115.901,286.77,97.399,268.264,74.57,268.264z"/>
		<path d="M421.728,268.264c-22.813,0-41.32,18.506-41.32,41.328c0,3.855,0.697,7.506,1.679,11.049
			c4.854,17.424,20.667,30.28,39.642,30.28c19.865,0,36.432-14.026,40.403-32.705c0.589-2.781,0.926-5.654,0.926-8.616
			C463.057,286.77,444.55,268.264,421.728,268.264z"/>
	</g>
</g>
<g>
</g>
<g>
</g>
<g>
</g>
<g>
</g>
<g>
</g>
<g>
</g>
<g>
</g>
<g>
</g>
<g>
</g>
<g>
</g>
<g>
</g>
<g>
</g>
<g>
</g>
<g>
</g>
<g>
</g>
</svg>
