<?xml version="1.0" encoding="iso-8859-1"?>
<!-- Generator: Adobe Illustrator 16.0.0, SVG Export Plug-In . SVG Version: 6.00 Build 0)  -->
<!DOCTYPE svg PUBLIC "-//W3C//DTD SVG 1.1//EN" "http://www.w3.org/Graphics/SVG/1.1/DTD/svg11.dtd">
<svg version="1.1" id="Capa_1" xmlns="http://www.w3.org/2000/svg" xmlns:xlink="http://www.w3.org/1999/xlink" x="0px" y="0px"
	 width="479.979px" height="479.979px" viewBox="0 0 479.979 479.979" style="enable-background:new 0 0 479.979 479.979;"
	 xml:space="preserve">
<g>
	<g>
		<path d="M13.649,301.046c2.128,0,5.437-3.767,7.392-8.396l20.22-47.985c1.954-4.63,7.255-8.988,11.864-9.617
			c15.214-2.054,46.983-5.462,58.075,0.044c6.314,3.13,14.187,54.377,21.801,54.377c18.816,0,39.631,18.506,61.312,18.506
			c48.952,0,102.352,0,147.287,0c8.54,0,33.546-74.015,41.288-74.015c38.127,0,57.07,9.251,62.3,9.251
			c2.729,0,13.377,57.971,16.206,57.895c6.5-0.176,11.177-3.971,14.23-7.766c3.081-3.827,4.596-11.874,4.324-16.972
			c-0.537-9.874-1.888-16.278-3.358-20.401c-1.688-4.762-5.366-11.454-6.06-16.507l-0.978-7.146
			c-0.706-5.043-4.296-11.634-8.464-13.89c-26.013-14.118-86.256-24.479-108.373-27.926c-4.584-0.717-10.275-4.787-12.667-9.169
			l-17.922-32.727c-2.392-4.374-8.103-7.925-12.743-7.925H118.295c-4.639,0-9.904,3.795-11.776,8.472l-10.752,26.998
			c-1.861,4.679-7.137,8.47-11.773,8.47H18.897c-4.641,0-8.321,4.202-9.51,9.147C6.688,204.992,0,215.391,0,254.784
			c0,22.534,2.04,34.131,4.262,40.082C6.021,299.596,11.523,301.046,13.649,301.046z"/>
		<path d="M76.299,247.511c25.279,0,45.772,20.49,45.772,45.776c0,25.283-20.494,45.77-45.772,45.77
			c-25.283,0-45.777-20.486-45.777-45.77C30.522,268.001,51.016,247.511,76.299,247.511z"/>
		<path d="M408.098,247.267c25.411,0,46.014,20.598,46.014,46.021c0,25.411-20.603,46.014-46.014,46.014
			c-25.423,0-46.021-20.603-46.021-46.014C362.077,267.864,382.675,247.267,408.098,247.267z"/>
	</g>
</g>
<g>
</g>
<g>
</g>
<g>
</g>
<g>
</g>
<g>
</g>
<g>
</g>
<g>
</g>
<g>
</g>
<g>
</g>
<g>
</g>
<g>
</g>
<g>
</g>
<g>
</g>
<g>
</g>
<g>
</g>
</svg>
