<?xml version="1.0" encoding="iso-8859-1"?>
<!-- Generator: Adobe Illustrator 16.0.0, SVG Export Plug-In . SVG Version: 6.00 Build 0)  -->
<!DOCTYPE svg PUBLIC "-//W3C//DTD SVG 1.1//EN" "http://www.w3.org/Graphics/SVG/1.1/DTD/svg11.dtd">
<svg version="1.1" id="Capa_1" xmlns="http://www.w3.org/2000/svg" xmlns:xlink="http://www.w3.org/1999/xlink" x="0px" y="0px"
	 width="483.119px" height="483.119px" viewBox="0 0 483.119 483.119" style="enable-background:new 0 0 483.119 483.119;"
	 xml:space="preserve">
<g>
	<g>
		<path d="M51.596,305.781c-0.006-0.321-0.044-0.638-0.044-0.95c0-30.665,24.95-55.607,55.603-55.607
			c30.655,0,55.605,24.955,55.605,55.607c0,1.118-0.104,2.208-0.166,3.303c61.037-0.706,127.083-3.647,179.589-6.553
			c1.695-29.15,25.876-52.357,55.435-52.357c26.798,0,49.219,19.044,54.457,44.314c38.744-7.546,29.991-24.08,30.597-33.955
			c0.649-10.703-14.391-10.703-10.468-21.403c3.928-10.7-0.657-90.584-46.45-101.286c-45.788-10.698-168.131-7.133-211.307,4.995
			s-107.942,57.769-117.754,59.2c-9.814,1.425-88.317,28.535-94.858,42.802c-6.546,14.267,6.541,56.348,6.541,56.348
			C19.617,302.707,34.374,304.507,51.596,305.781z"/>
		<path d="M107.155,257.066c-26.377,0-47.752,21.392-47.752,47.757c0,0.505,0.06,0.99,0.076,1.486
			c0.793,25.676,21.811,46.266,47.685,46.266c25.23,0,45.845-19.588,47.588-44.374c0.078-1.126,0.172-2.235,0.172-3.386
			C154.917,278.458,133.532,257.066,107.155,257.066z"/>
		<path d="M397.617,257.066c-25.127,0-45.673,19.429-47.568,44.07c-0.084,1.226-0.185,2.444-0.185,3.694
			c0,26.377,21.392,47.753,47.753,47.753c26.381,0,47.757-21.38,47.757-47.753c0-3.435-0.377-6.784-1.066-10.015
			C439.707,273.253,420.556,257.066,397.617,257.066z"/>
	</g>
</g>
<g>
</g>
<g>
</g>
<g>
</g>
<g>
</g>
<g>
</g>
<g>
</g>
<g>
</g>
<g>
</g>
<g>
</g>
<g>
</g>
<g>
</g>
<g>
</g>
<g>
</g>
<g>
</g>
<g>
</g>
</svg>
