<?xml version="1.0" encoding="iso-8859-1"?>
<!-- Generator: Adobe Illustrator 16.0.0, SVG Export Plug-In . SVG Version: 6.00 Build 0)  -->
<!DOCTYPE svg PUBLIC "-//W3C//DTD SVG 1.1//EN" "http://www.w3.org/Graphics/SVG/1.1/DTD/svg11.dtd">
<svg version="1.1" id="Capa_1" xmlns="http://www.w3.org/2000/svg" xmlns:xlink="http://www.w3.org/1999/xlink" x="0px" y="0px"
	 width="486.03px" height="486.03px" viewBox="0 0 486.03 486.03" style="enable-background:new 0 0 486.03 486.03;"
	 xml:space="preserve">
<g>
	<g>
		<path d="M75.005,262.588c21.169,0,38.331,17.164,38.331,38.339c0,21.168-17.162,38.331-38.331,38.331
			c-21.171,0-38.337-17.163-38.337-38.331C36.668,279.752,53.833,262.588,75.005,262.588z"/>
		<path d="M389.543,262.588c21.176,0,38.331,17.164,38.331,38.339c0,21.168-17.155,38.331-38.331,38.331
			c-21.175,0-38.331-17.163-38.331-38.331C351.212,279.752,368.369,262.588,389.543,262.588z"/>
		<path d="M7.333,280.253h12.583c0.621,5.999,1.281,10.832,1.281,10.832c11.666-2.493,31.995-46.835,57.667-46.835
			c25.672,0,42.339,22.001,44.33,42.002c1.994,20.005,14,17.665,14,17.665c96.669,5.329,199.668-4.777,199.668-4.777
			c-2.669-53.103,68.668-68.563,86.669-31.891c17.997,36.668,54,31.662,54,31.662l-0.834-9.838c15.008-0.986,7.41-5.73,7.41-5.73
			s0,0,0-10.007c0-9.998-25.567-11.754-25.567-11.754C401.213,98.251,187.208,157.091,187.208,157.091
			c-10.004,21.003-34.997,42.502-34.997,42.502c-69.507-4.504-108.509,35.993-108.509,35.993
			c-12.976,5.276-21.155,14.162-23.816,22.662H7.333c-4.054,0-7.333,4.921-7.333,11C0,275.319,3.288,280.253,7.333,280.253z"/>
	</g>
</g>
<g>
</g>
<g>
</g>
<g>
</g>
<g>
</g>
<g>
</g>
<g>
</g>
<g>
</g>
<g>
</g>
<g>
</g>
<g>
</g>
<g>
</g>
<g>
</g>
<g>
</g>
<g>
</g>
<g>
</g>
</svg>
