<?xml version="1.0" encoding="iso-8859-1"?>
<!-- Generator: Adobe Illustrator 16.0.0, SVG Export Plug-In . SVG Version: 6.00 Build 0)  -->
<!DOCTYPE svg PUBLIC "-//W3C//DTD SVG 1.1//EN" "http://www.w3.org/Graphics/SVG/1.1/DTD/svg11.dtd">
<svg version="1.1" id="Capa_1" xmlns="http://www.w3.org/2000/svg" xmlns:xlink="http://www.w3.org/1999/xlink" x="0px" y="0px"
	 width="486.964px" height="486.965px" viewBox="0 0 486.964 486.965" style="enable-background:new 0 0 486.964 486.965;"
	 xml:space="preserve">
<g>
	<g>
		<path d="M59.993,299.805c-0.076-1.082-0.165-2.172-0.165-3.266c0-25.651,20.795-46.442,46.442-46.442s46.444,20.799,46.444,46.442
			c0,0.99-0.088,1.947-0.15,2.921l189.347-5.489c1.342-24.45,21.536-43.874,46.321-43.874c23.772,0,43.353,17.886,46.09,40.92
			l37.649-6.039c11.778-0.489,11.285-12.267,11.285-12.267c8.34-5.398,0-12.259,0-12.259v-12.764l-8.062-5.887
			c0,0,6.592-17.182-4.204-37.292c-4.769-8.876-11.345-17.18-17.212-23.688c21.636-4.147,60.748-16.069-86.32-31.755
			c-183.995-19.626-277.704,57.897-277.704,57.897c-34.346,6.869-72.609,26.986-72.609,26.986L0.463,257.983
			c-1.962,9.814,2.945,30.421,2.945,30.421C11.76,295.297,35.492,298.454,59.993,299.805z"/>
		<path d="M145.097,304.39c0-1.611-0.271-3.146-0.471-4.701c-2.331-18.021-17.567-31.999-36.219-31.999
			c-18.879,0-34.25,14.314-36.293,32.652c-0.15,1.347-0.407,2.661-0.407,4.04c0,20.27,16.431,36.699,36.7,36.699
			C128.668,341.09,145.097,324.659,145.097,304.39z"/>
		<path d="M423.045,304.39c0-4.492-0.921-8.757-2.452-12.704c-5.105-13.107-17.773-22.434-32.677-22.434
			c-15.612,0-28.693,10.251-33.27,24.342c-1.106,3.418-1.863,7.001-1.863,10.788c0,19.403,15.733,35.133,35.133,35.133
			C407.313,339.522,423.045,323.793,423.045,304.39z"/>
	</g>
</g>
<g>
</g>
<g>
</g>
<g>
</g>
<g>
</g>
<g>
</g>
<g>
</g>
<g>
</g>
<g>
</g>
<g>
</g>
<g>
</g>
<g>
</g>
<g>
</g>
<g>
</g>
<g>
</g>
<g>
</g>
</svg>
