<?xml version="1.0" encoding="iso-8859-1"?>
<!-- Generator: Adobe Illustrator 16.0.0, SVG Export Plug-In . SVG Version: 6.00 Build 0)  -->
<!DOCTYPE svg PUBLIC "-//W3C//DTD SVG 1.1//EN" "http://www.w3.org/Graphics/SVG/1.1/DTD/svg11.dtd">
<svg version="1.1" id="Capa_1" xmlns="http://www.w3.org/2000/svg" xmlns:xlink="http://www.w3.org/1999/xlink" x="0px" y="0px"
	 width="478.399px" height="478.398px" viewBox="0 0 478.399 478.398" style="enable-background:new 0 0 478.399 478.398;"
	 xml:space="preserve">
<g>
	<g>
		<path d="M1.436,294.414c0,13.245,6.869,9.811,43.178,14.219c0.282,0.032,0.739,0.064,1.05,0.101
			c0.725-31.848,26.793-57.527,58.809-57.527c32.374,0,58.713,26.249,58.863,58.601c54.212-0.497,117.63-1.61,170.917-2.845
			c1.635-31.018,27.303-55.756,58.717-55.756c29.939,0,54.661,22.454,58.356,51.396c26.941-3.879,26.532-16.038,26.532-16.038
			c6.372-100.56-45.628-128.059-45.628-128.059c-2.524-0.3-4.929-0.533-7.414-0.809c-14.475-11.432-47.66-32.557-95.433-32.557
			c-63.186,0-104.878,27.641-106.63,28.819l0.022,0.03c-3.216,0.238-6.113,0.449-8.384,0.591
			c-24.037,1.475-123.643,57.896-123.643,57.896c-84.39,13.252-83.411,51.026-83.411,51.026c-6.374,0.493-9.325,9.814-5.887,17.665
			S1.436,294.414,1.436,294.414z M329.372,140.832c24.209,0,44.342,6.203,59.603,13.371c-51.247-4.114-93.077-3.925-123.71-2.725
			C281.855,145.843,303.788,140.832,329.372,140.832z"/>
		<path d="M104.472,266.907c-23.627,0-42.869,19.088-43.154,42.663c0,0.177-0.024,0.337-0.024,0.513
			c0,23.805,19.374,43.177,43.178,43.177c23.805,0,43.178-19.372,43.178-43.177c0-0.052-0.008-0.1-0.008-0.152
			C147.562,286.195,128.227,266.907,104.472,266.907z"/>
		<path d="M392.969,266.907c-22.622,0-41.204,17.501-42.992,39.682c-0.092,1.15-0.184,2.312-0.184,3.494
			c0,23.805,19.371,43.177,43.176,43.177c23.804,0,43.176-19.372,43.176-43.177c0-2.115-0.196-4.171-0.488-6.211
			C432.619,283.005,414.666,266.907,392.969,266.907z"/>
	</g>
</g>
<g>
</g>
<g>
</g>
<g>
</g>
<g>
</g>
<g>
</g>
<g>
</g>
<g>
</g>
<g>
</g>
<g>
</g>
<g>
</g>
<g>
</g>
<g>
</g>
<g>
</g>
<g>
</g>
<g>
</g>
</svg>
