<?xml version="1.0" encoding="iso-8859-1"?>
<!-- Generator: Adobe Illustrator 16.0.0, SVG Export Plug-In . SVG Version: 6.00 Build 0)  -->
<!DOCTYPE svg PUBLIC "-//W3C//DTD SVG 1.1//EN" "http://www.w3.org/Graphics/SVG/1.1/DTD/svg11.dtd">
<svg version="1.1" id="Capa_1" xmlns="http://www.w3.org/2000/svg" xmlns:xlink="http://www.w3.org/1999/xlink" x="0px" y="0px"
	 width="455.972px" height="455.972px" viewBox="0 0 455.972 455.972" style="enable-background:new 0 0 455.972 455.972;"
	 xml:space="preserve">
<g>
	<g>
		<path d="M440.274,223.363h-52.99V97.826c0-21.674-17.581-39.252-39.253-39.252L39.251,27.171C17.575,27.171,0,44.752,0,66.424
			v235.789c0,21.673,17.575,39.249,39.251,39.249h35.875c15.553,50.506,62.64,87.338,118.189,87.338
			c55.553,0,102.632-36.832,118.186-87.338h36.531c12.419,0,23.359-5.887,30.549-14.888h61.694c8.668,0,15.697-7.029,15.697-15.701
			v-71.809C455.972,230.396,448.942,223.363,440.274,223.363z M294.833,341.462c-4.537,12.651-11.313,24.197-19.949,34.163
			l-34.159-34.163l-28.457-28.457h88.592C300.139,322.928,298.07,332.461,294.833,341.462z M201.165,412.698v-71.236v-17.356
			l17.358,17.356l45.26,45.264C246.72,401.505,225.015,410.967,201.165,412.698z M91.786,341.462
			c-3.236-9.001-5.298-18.534-6.023-28.457h88.594l-28.451,28.457l-34.166,34.163C103.105,365.659,96.325,354.113,91.786,341.462z
			 M185.466,286.203l-62.624-62.622c17.065-14.766,38.772-24.241,62.624-25.97V286.203z M274.884,234.684
			c14.768,17.068,24.245,38.765,25.976,62.62h-88.592L274.884,234.684z M263.783,223.582l-62.624,62.622v-88.592
			C225.015,199.34,246.72,208.808,263.783,223.582z M174.363,297.304h-88.6c1.729-23.855,11.205-45.552,25.97-62.62L174.363,297.304
			z M168.108,341.462l17.358-17.356v17.356v71.236c-23.858-1.731-45.559-11.209-62.624-25.973L168.108,341.462z"/>
	</g>
</g>
<g>
</g>
<g>
</g>
<g>
</g>
<g>
</g>
<g>
</g>
<g>
</g>
<g>
</g>
<g>
</g>
<g>
</g>
<g>
</g>
<g>
</g>
<g>
</g>
<g>
</g>
<g>
</g>
<g>
</g>
</svg>
