<?xml version="1.0" encoding="iso-8859-1"?>
<!-- Generator: Adobe Illustrator 16.0.0, SVG Export Plug-In . SVG Version: 6.00 Build 0)  -->
<!DOCTYPE svg PUBLIC "-//W3C//DTD SVG 1.1//EN" "http://www.w3.org/Graphics/SVG/1.1/DTD/svg11.dtd">
<svg version="1.1" id="Capa_1" xmlns="http://www.w3.org/2000/svg" xmlns:xlink="http://www.w3.org/1999/xlink" x="0px" y="0px"
	 width="490.2px" height="490.2px" viewBox="0 0 490.2 490.2" style="enable-background:new 0 0 490.2 490.2;" xml:space="preserve"
	>
<g>
	<g>
		<path d="M4.183,302.283c0.112,9.218,13.972,8.917,14.593,8.9c-0.675-3.326-1.034-6.776-1.034-10.311
			c0-28.669,23.331-52.009,52.008-52.009c28.675,0,52.008,23.34,52.008,52.009c0,6.011-1.078,11.754-2.959,17.128
			c57.874-3.804,240.089-2.445,247.792-1.588c0.974,0.108,2.978,0.085,5.742-0.035c-0.833-3.735-1.326-7.599-1.326-11.578
			c0-28.949,23.552-52.501,52.51-52.501c28.692,0,52.068,23.171,52.461,51.772l9.013-3.804c1.996-0.833,1.703-0.909-0.221-1.907
			c-2.232-1.158-3.586-4.717,2.208-14.988c7.306-12.972,0.505-22.369-3.847-26.609c-1.559-1.502-2.985-4.264-3.021-6.424
			c-0.493-31.518-12.483-42.38-18.655-45.893c-1.883-1.066-1.854-1.835,0.285-2.204c28.152-4.867,9.093-4.577,6.592-12.104
			c-2.612-7.851-19.624,0.651-28.456,2.943c-3.259,0.848-13.514,2.669-25.151,4.639c0.533-0.587,0.866-1.2,0.697-1.852
			c-0.469-1.813-1.021-3.25-1.551-4.366c-0.926-1.963-3.033-4.833-4.7-6.226c-2.061-1.733-5.418-3.452-10.228-2.653
			c-1.599,0.269-2.965,1.163-4.132,2.458c-0.244-0.385-0.488-0.779-0.713-1.086c-1.976-2.705-5.526-5.845-10.852-4.592
			c-6.16,1.453-8.833,16.134-9.915,25.028c-2.071,0.252-4.652,0.433-6.407,0.433h-33.366c6.845-8.714-1.11-14.092-7.442-14.517
			c-1.694-0.119-4.163,0.912-6.864,2.442c-1.595-2.691-4.452-4.316-7.029-4.554c-4.216-0.377-13.966,10.159-18.606,15.482
			c-0.305,0.353-0.497,0.748-0.637,1.138h-86.334v-11.033c0-3.791-3.078-6.869-6.869-6.869s-6.869,3.078-6.869,6.869v11.033h-15.371
			c-2.166,0-2.631-1.204-1.054-2.683c9.955-9.354,42.298-40.118,40.635-43.438c-1.132-2.254,0.227-5.803,1.587-8.417
			c0.996-1.919,0.815-4.668-0.99-5.873c-3.062-2.045-8.448-4.45-16.05-3.476c-2.15,0.276-5.538,1.242-7.486,2.192
			c-16.479,8.069-57.034,43.036-68.314,52.88c-1.633,1.429-4.705,2.725-6.869,2.905C22.932,207.023,9.389,238.305,7.638,249.378
			c-0.337,2.14-1.663,4.937-3.022,6.624c-8.207,10.234-3.464,30.376-0.996,38.688C4.237,296.773,4.161,300.115,4.183,302.283z"/>
		<path d="M336.663,184.617c0-8.816-4.725-15.969-10.548-15.969c-3.542,0-6.656,2.665-8.571,6.716
			c-1.511-2.591-3.695-4.262-6.147-4.262c-4.541,0-8.22,5.572-8.22,12.441c0,6.871,3.679,4.482,8.22,4.482
			c1.764,0,3.378,0.345,4.721,0.383c1.37,3.841,5.306,1.956,9.998,1.956C331.946,190.364,336.663,193.434,336.663,184.617z"/>
		<path d="M384.224,176.909c1.763,0,3.382,0.345,4.725,0.383c1.362,3.841,5.298,1.947,9.994,1.947c5.819,0,10.552,3.07,10.552-5.747
			s-4.732-15.967-10.552-15.967c-3.538,0-6.66,2.663-8.575,6.714c-1.503-2.591-3.688-4.262-6.144-4.262
			c-4.536,0-8.224,5.574-8.224,12.443C376,179.306,379.679,176.909,384.224,176.909z"/>
		<path d="M69.75,345.039c18.032,0,33.512-10.824,40.375-26.31c2.418-5.466,3.783-11.484,3.783-17.849
			c0-24.386-19.767-44.158-44.158-44.158s-44.16,19.772-44.16,44.158c0,3.282,0.385,6.464,1.058,9.538
			C31.017,330.215,48.642,345.039,69.75,345.039z"/>
		<path d="M423.517,260.157c-24.662,0-44.659,19.985-44.659,44.65c0,3.832,0.537,7.526,1.451,11.077
			c4.929,19.288,22.377,33.57,43.208,33.57c23.872,0,43.312-18.759,44.534-42.335c0.036-0.773,0.112-1.53,0.112-2.32
			C468.155,280.143,448.17,260.157,423.517,260.157z"/>
	</g>
</g>
<g>
</g>
<g>
</g>
<g>
</g>
<g>
</g>
<g>
</g>
<g>
</g>
<g>
</g>
<g>
</g>
<g>
</g>
<g>
</g>
<g>
</g>
<g>
</g>
<g>
</g>
<g>
</g>
<g>
</g>
</svg>
