<?xml version="1.0" encoding="iso-8859-1"?>
<!-- Generator: Adobe Illustrator 16.0.0, SVG Export Plug-In . SVG Version: 6.00 Build 0)  -->
<!DOCTYPE svg PUBLIC "-//W3C//DTD SVG 1.1//EN" "http://www.w3.org/Graphics/SVG/1.1/DTD/svg11.dtd">
<svg version="1.1" id="Capa_1" xmlns="http://www.w3.org/2000/svg" xmlns:xlink="http://www.w3.org/1999/xlink" x="0px" y="0px"
	 width="477.199px" height="477.198px" viewBox="0 0 477.199 477.198" style="enable-background:new 0 0 477.199 477.198;"
	 xml:space="preserve">
<g>
	<g>
		<path d="M472.25,281.039c-2.04-0.95-1.855-4.745-0.461-8.853c1.979-5.875,3.566-14.743,0.216-24.257
			c-4.048-11.485-20.438-18.55-30.252-21.843c-4.111-1.38-8.556-5.566-9.814-9.71l-11.132-36.495
			c-1.255-4.144-5.795-7.692-10.119-7.919l-114.344-6.037c-4.332-0.23-11.967-0.802-14.114,2.967
			c-8.424,14.773-7.971,70.548-6.961,102.6H45.634c-4.332,0-7.851,3.522-7.851,7.851v19.629c0,4.332,3.507,7.689,7.843,7.489
			l50.463-2.34c4.4-12.664,16.326-21.833,30.466-21.833c13.095,0,24.337,7.851,29.431,19.052l130.895-6.063
			c20.013,1.335,64.853,4.191,104.618,5.835c5.214-11.646,16.859-19.812,30.42-19.812c13.946,0,25.88,8.62,30.865,20.79
			c5.037-0.212,8.801-0.589,10.877-1.162c9.345-2.568,12.575-6.809,13.389-10.543C477.984,286.137,474.281,281.988,472.25,281.039z"
			/>
		<path d="M258.08,259.695c0.706,0,1.352-0.229,2-0.396c0.393,0.168,0.777,0.396,1.19,0.396c2.577,0,4.661-3.519,4.661-7.851
			v-23.549v-83.411c0-4.332-2.084-7.851-4.661-7.851s-4.661,3.519-4.661,7.851v75.56H7.851c-4.332,0-7.851,3.519-7.851,7.851v23.549
			c0,4.332,3.519,7.851,7.851,7.851H258.08z"/>
		<path d="M151.082,314.649c0-4.753-1.414-9.161-3.761-12.924c-4.336-6.957-11.978-11.609-20.772-11.609
			c-9.594,0-17.813,5.558-21.84,13.585c-1.665,3.314-2.691,6.993-2.691,10.948c0,13.553,10.982,24.533,24.531,24.533
			C140.1,339.183,151.082,328.202,151.082,314.649z"/>
		<path d="M447.431,314.649c0-4.509-1.271-8.681-3.318-12.351c-4.355-7.811-12.611-13.165-22.193-13.165
			c-9.236,0-17.252,4.953-21.736,12.299c-2.352,3.863-3.778,8.363-3.778,13.217c0,14.09,11.425,25.515,25.515,25.515
			C436.01,340.164,447.431,328.739,447.431,314.649z"/>
	</g>
</g>
<g>
</g>
<g>
</g>
<g>
</g>
<g>
</g>
<g>
</g>
<g>
</g>
<g>
</g>
<g>
</g>
<g>
</g>
<g>
</g>
<g>
</g>
<g>
</g>
<g>
</g>
<g>
</g>
<g>
</g>
</svg>
