<?xml version="1.0" encoding="iso-8859-1"?>
<!-- Generator: Adobe Illustrator 16.0.0, SVG Export Plug-In . SVG Version: 6.00 Build 0)  -->
<!DOCTYPE svg PUBLIC "-//W3C//DTD SVG 1.1//EN" "http://www.w3.org/Graphics/SVG/1.1/DTD/svg11.dtd">
<svg version="1.1" id="Capa_1" xmlns="http://www.w3.org/2000/svg" xmlns:xlink="http://www.w3.org/1999/xlink" x="0px" y="0px"
	 width="476.684px" height="476.685px" viewBox="0 0 476.684 476.685" style="enable-background:new 0 0 476.684 476.685;"
	 xml:space="preserve">
<g>
	<g>
		<path d="M0.83,278.409c6.087,1.194,15.371,2.116,26.694,2.821c4.184-16.791,19.273-29.317,37.343-29.317
			c18.795,0,34.45,13.524,37.864,31.334c56.739,0.36,114.238-0.914,114.238-0.914c5.236-20.935,1.311-103.366-3.274-109.906
			c-4.584-6.538-37.289-6.538-60.841,0c-23.55,6.54-37.94,37.291-63.454,35.328c-25.513-1.964-77.201,9.812-81.778,17.011
			c-4.576,7.2,0,22.899,0,22.899C-3.502,254.205,0.83,278.409,0.83,278.409z"/>
		<path d="M371.033,251.913c18.822,0,34.491,13.553,37.87,31.401h67.781V155.424H229.396v127.899h103.766
			C336.548,265.466,352.217,251.913,371.033,251.913z"/>
		<path d="M64.867,259.763c-13.894,0-25.489,9.277-29.304,21.917c-0.847,2.817-1.445,5.743-1.445,8.824
			c0,16.983,13.77,30.753,30.749,30.753c16.981,0,30.751-13.77,30.751-30.753c0-2.536-0.391-4.965-0.974-7.329
			C91.34,269.762,79.304,259.763,64.867,259.763z"/>
		<path d="M401.773,290.512c0-2.488-0.372-4.873-0.934-7.197c-3.25-13.493-15.316-23.552-29.807-23.552
			c-14.491,0-26.558,10.059-29.815,23.552c-0.558,2.316-0.934,4.709-0.934,7.197c0,16.983,13.77,30.749,30.749,30.749
			S401.773,307.495,401.773,290.512z"/>
	</g>
</g>
<g>
</g>
<g>
</g>
<g>
</g>
<g>
</g>
<g>
</g>
<g>
</g>
<g>
</g>
<g>
</g>
<g>
</g>
<g>
</g>
<g>
</g>
<g>
</g>
<g>
</g>
<g>
</g>
<g>
</g>
</svg>
