<?xml version="1.0" encoding="iso-8859-1"?>
<!-- Generator: Adobe Illustrator 16.0.0, SVG Export Plug-In . SVG Version: 6.00 Build 0)  -->
<!DOCTYPE svg PUBLIC "-//W3C//DTD SVG 1.1//EN" "http://www.w3.org/Graphics/SVG/1.1/DTD/svg11.dtd">
<svg version="1.1" id="Capa_1" xmlns="http://www.w3.org/2000/svg" xmlns:xlink="http://www.w3.org/1999/xlink" x="0px" y="0px"
	 width="325.198px" height="325.198px" viewBox="0 0 325.198 325.198" style="enable-background:new 0 0 325.198 325.198;"
	 xml:space="preserve">
<g>
	<g>
		<path d="M26.026,204.943c0,0,0.52,0.006,1.478,0.016c-0.652-2.558-1.038-5.22-1.038-7.969c0-17.787,14.47-32.255,32.255-32.255
			c17.784,0,32.254,14.468,32.254,32.255c0,2.987-0.44,5.877-1.209,8.632c43.538,0.403,101.044,0.808,144.866,0.673
			c-0.891-2.946-1.378-6.068-1.378-9.3c0-17.787,14.468-32.254,32.255-32.254c17.781,0,32.254,14.467,32.254,32.254
			c0,2.786-0.393,5.483-1.061,8.062c0.383-0.036,0.75-0.072,1.061-0.108c24.747-3.092,27.838-19.444,27.398-29.604
			c-0.44-10.16-7.514-2.651-7.954-11.045c-0.44-8.394-16.348-22.535-16.348-22.535c12.816-14.142-9.278-5.303-9.278-5.303
			c-6.629-9.719-48.162-28.277-48.162-28.277s-0.886-9.279-3.537-6.354c-2.65,2.925-11.93,5.913-11.93,5.913
			c-52.584-12.371-83.073-1.766-92.792,0c-9.72,1.766-42.859,28.723-42.859,28.723c-81.297,3.076-83.508,33.565-83.508,33.565
			c-14.582,8.394-6.628,27.396-6.628,27.396C8.793,206.27,26.026,204.943,26.026,204.943z"/>
		<path d="M58.726,170.033c-14.885,0-26.952,12.064-26.952,26.951c0,2.822,0.552,5.484,1.356,8.037
			c3.436,10.936,13.533,18.916,25.596,18.916c11.866,0,21.831-7.721,25.43-18.378c0.912-2.713,1.522-5.566,1.522-8.58
			C85.678,182.098,73.61,170.033,58.726,170.033z"/>
		<path d="M265.519,170.033c-14.887,0-26.951,12.064-26.951,26.951c0,3.278,0.673,6.375,1.744,9.279
			c3.791,10.289,13.598,17.674,25.213,17.674c11.915,0,21.908-7.783,25.471-18.512c0.886-2.673,1.486-5.479,1.486-8.446
			C292.472,182.098,280.401,170.033,265.519,170.033z"/>
	</g>
</g>
<g>
</g>
<g>
</g>
<g>
</g>
<g>
</g>
<g>
</g>
<g>
</g>
<g>
</g>
<g>
</g>
<g>
</g>
<g>
</g>
<g>
</g>
<g>
</g>
<g>
</g>
<g>
</g>
<g>
</g>
</svg>
