<?xml version="1.0" encoding="iso-8859-1"?>
<!-- Generator: Adobe Illustrator 16.0.0, SVG Export Plug-In . SVG Version: 6.00 Build 0)  -->
<!DOCTYPE svg PUBLIC "-//W3C//DTD SVG 1.1//EN" "http://www.w3.org/Graphics/SVG/1.1/DTD/svg11.dtd">
<svg version="1.1" id="Capa_1" xmlns="http://www.w3.org/2000/svg" xmlns:xlink="http://www.w3.org/1999/xlink" x="0px" y="0px"
	 width="486.486px" height="486.486px" viewBox="0 0 486.486 486.486" style="enable-background:new 0 0 486.486 486.486;"
	 xml:space="preserve">
<g>
	<g>
		<path d="M385.16,224.833c-8.327,2.793-15.945,6.915-22.73,12.041L322.9,191.917l-17.656-20.081l-10.396-11.826
			c-1.303,0.622-2.376,1.281-3.442,1.94c-8.416-10.878-17.633-20.606-30.353-26.99c-17.235-8.642-37.82-3.184-55.579-10.187
			c-11.327-4.466-16.188,13.649-5.017,18.054c11.143,4.396,22.403,4.899,34.268,5.466c21.724,1.042,33.722,13.695,45.688,30.176
			c0.758,1.054,1.655,1.847,2.597,2.473c-1.042,2.827-6.087,4.036-6.087,4.036c-19.224-47.063-60.012-1.491-97.88,38.569
			c-11.219,1.302-21.752,4.474-29.25,12.2c-9.185,9.466-23.363,24.342-32.398,6.474c-3.737-7.377-11.558-8.83-18.899-9.804
			c-6.765-0.901-9.678,4.623-8.822,9.925c-32.495-20.24-73.621,10.994-73.621,10.994l8.165,4.067C9.567,267.954,0,285.034,0,304.369
			c0,32.06,26.203,58.048,58.532,58.048c18.959,0,35.764-8.977,46.458-22.838c27.493,5.045,91.552,2.717,119.696,2.717
			c33.979,0,37.441-20.603,37.441-20.603s33.987-107.367,35.566-117.044c1.57-9.672,8.179,2.184,8.179,2.184l10.388-5.623
			c0,0,17.765,20.261,37.91,42.861c-5.995,6.025-11.101,12.986-14.964,20.817c-9.321,18.871-10.716,40.23-3.919,60.147
			c1.113,3.266,4.163,5.313,7.43,5.313c0.837,0,1.694-0.136,2.528-0.421c4.104-1.395,6.304-5.867,4.893-9.975
			c-5.441-15.921-4.323-33.021,3.135-48.121c2.969-6.003,6.824-11.385,11.356-16.062c1.227,1.358,2.437,2.705,3.647,4.063
			c-10.564,10.792-17.096,25.491-17.096,41.722c0,33.093,27.046,59.919,60.411,59.919c33.37,0,60.42-26.834,60.42-59.919
			c0-33.09-27.054-59.921-60.42-59.921c-13.116,0-25.223,4.19-35.121,11.231l-3.671-4.182c5.214-3.803,11.041-6.847,17.356-8.967
			c33.394-11.197,69.749,6.586,81.05,39.674c1.396,4.1,5.855,6.295,9.967,4.893c4.092-1.398,6.292-5.867,4.89-9.967
			C471.98,233.075,426.708,210.876,385.16,224.833z M50.932,270.727c2.449-0.537,4.979-0.874,7.586-0.874
			c10.141,0,19.208,4.356,25.605,11.169c5.769,6.159,9.372,14.314,9.372,23.339c0,19.02-15.689,34.496-34.977,34.496
			c-19.29,0-34.982-15.469-34.982-34.496C23.536,287.907,35.287,274.161,50.932,270.727z M116.091,314.58
			c0.595-3.317,0.956-6.732,0.956-10.219c0-10.579-2.896-20.462-7.875-28.993l2.216-0.501
			C132.543,305.62,121.799,312.869,116.091,314.58z M411.592,265.176c20.33,0,36.868,16.322,36.868,36.371
			c0,20.054-16.538,36.368-36.868,36.368c-20.329,0-36.86-16.314-36.86-36.368c0-9.293,3.651-17.688,9.49-24.128
			c14.138,15.48,25.278,27.202,26.758,27.406c4.399,0.621,5.979-5.923,5.979-5.923l-24.746-28.145
			C397.855,267.276,404.463,265.176,411.592,265.176z"/>
	</g>
</g>
<g>
</g>
<g>
</g>
<g>
</g>
<g>
</g>
<g>
</g>
<g>
</g>
<g>
</g>
<g>
</g>
<g>
</g>
<g>
</g>
<g>
</g>
<g>
</g>
<g>
</g>
<g>
</g>
<g>
</g>
</svg>
