<?xml version="1.0" encoding="iso-8859-1"?>
<!-- Generator: Adobe Illustrator 16.0.0, SVG Export Plug-In . SVG Version: 6.00 Build 0)  -->
<!DOCTYPE svg PUBLIC "-//W3C//DTD SVG 1.1//EN" "http://www.w3.org/Graphics/SVG/1.1/DTD/svg11.dtd">
<svg version="1.1" id="Capa_1" xmlns="http://www.w3.org/2000/svg" xmlns:xlink="http://www.w3.org/1999/xlink" x="0px" y="0px"
	 width="332.72px" height="332.719px" viewBox="0 0 332.72 332.719" style="enable-background:new 0 0 332.72 332.719;"
	 xml:space="preserve">
<g>
	<g>
		<path d="M305.079,162.353c6.063-2.512,7.322-13.002-0.729-15.095c-6.137-1.595-12.396-2.092-18.601-1.631
			c13.381-12.339,19.688-22.022,9.859-24.171c-8.533-1.87-15.514-5.163-21.8-8.596c1.688-21.117,3.412-51.906-25.922-51.388
			c-10.242,0.181-10.263,16.088,0,15.907c12.936-0.228,12.34,15.213,10.998,27.195c-10.589-5.225-21.022-7.177-36.624,2.63
			c-30.935,19.449-88.375,17.678-134.331-3.531c-45.956-21.209-46.836-5.303-46.836-5.303s-49.552,70.221-15.907,43.305
			c12.27-9.812,30.463-8.569,50.341-1.683c-22.848-4.552-48.951,1.962-68.561,20.588c-4.973,4.718-1.6,11.263,3.395,13.018
			C3.834,183.091,0,194.576,0,206.967c0,32.576,26.411,58.989,58.989,58.989c32.371,0,58.629-26.082,58.958-58.383
			c4.357,0.559,8.992-1.942,8.647-7.57c-1.145-18.693-8.319-33.265-18.924-43.543c0.238-0.436,0.456-0.886,0.689-1.326
			c20.951,11.688,41.291,26.273,56.475,38.023c-0.259,0.336-0.507,0.673-0.704,1.062c-1.766,3.536-3.537,7.067-5.303,10.604
			c-1.941,3.879-1.066,8.586,2.854,10.879c3.552,2.087,8.945,1.025,10.879-2.853c1.618-3.231,3.236-6.468,4.853-9.704
			c8.119,6.628,13.027,10.993,13.027,10.993s5.013-3.138,12.873-8.243c-0.699,3.438-1.108,6.995-1.165,10.677
			c-0.119,7.793,9.016,9.647,13.489,5.603c4.723,27.849,28.899,49.078,58.093,49.078c32.576,0,58.989-26.413,58.989-58.988
			C332.726,191.215,321.665,172.792,305.079,162.353z M58.989,250.049c-23.755,0-43.082-19.33-43.082-43.082
			c0-23.757,19.327-43.082,43.082-43.082c7.933,0,15.351,2.196,21.74,5.95c-8.091,11.821-17.064,23.068-26.698,33.828
			c-6.825,7.612,4.391,18.9,11.247,11.247c9.852-10.998,19.12-22.493,27.514-34.574c5.789,7.337,9.279,16.575,9.279,26.626
			C102.071,230.719,82.744,250.049,58.989,250.049z M264.995,189.931c-4.329-4.971-8.922-9.729-13.546-14.467
			c3.832-2.331,8.047-4.081,12.547-5.127C264.281,176.873,264.581,183.402,264.995,189.931z M273.736,255.352
			c-23.758,0-43.082-19.33-43.082-43.082c0-9.906,3.396-19.015,9.035-26.295c11.098,11.304,21.873,22.815,29.169,37.268
			c4.417,8.756,15.721,2.076,14.54-6.126c-2.278-15.742-3.055-31.592-3.671-47.463c20.925,2.926,37.096,20.894,37.096,42.616
			C316.818,236.022,297.493,255.352,273.736,255.352z"/>
	</g>
</g>
<g>
</g>
<g>
</g>
<g>
</g>
<g>
</g>
<g>
</g>
<g>
</g>
<g>
</g>
<g>
</g>
<g>
</g>
<g>
</g>
<g>
</g>
<g>
</g>
<g>
</g>
<g>
</g>
<g>
</g>
</svg>
