<?xml version="1.0" encoding="iso-8859-1"?>
<!-- Generator: Adobe Illustrator 16.0.0, SVG Export Plug-In . SVG Version: 6.00 Build 0)  -->
<!DOCTYPE svg PUBLIC "-//W3C//DTD SVG 1.1//EN" "http://www.w3.org/Graphics/SVG/1.1/DTD/svg11.dtd">
<svg version="1.1" id="Capa_1" xmlns="http://www.w3.org/2000/svg" xmlns:xlink="http://www.w3.org/1999/xlink" x="0px" y="0px"
	 width="330.921px" height="330.921px" viewBox="0 0 330.921 330.921" style="enable-background:new 0 0 330.921 330.921;"
	 xml:space="preserve">
<g>
	<g>
		<path d="M6.628,204.928c6.628,1.766,15.244,2.211,15.244,2.211h2.271c-2.007-3.94-3.156-8.378-3.156-13.091
			c0-15.989,13.007-28.997,29-28.997c15.99,0,28.998,13.008,28.998,28.997c0,4.687-1.145,9.109-3.127,13.034l155.999-1.149
			c-1.642-3.636-2.579-7.648-2.579-11.885c0-15.989,13.008-28.997,28.998-28.997s28.997,13.008,28.997,28.997
			c0,3.305-0.58,6.468-1.605,9.436c14.499-2.107,34.637-5.256,39.385-7.115c7.628-2.978,5.635-27.175,5.635-27.175
			s-6.297-1.486-6.297-7.62c0-6.136,0-16.57,0-16.57s-5.634,0-2.491-3.151c3.144-3.151-5.142-2.814-5.142-2.814
			s-17.394,5.137-27.838-1.825c-10.438-6.962-49.544-19.555-49.544-19.555v-4.052c-6.794-1.398-13.256,1.066-13.256,1.066
			c-27.009-2.488-52.524,0-67.603,1.163c-15.082,1.16-51.201,23.032-56.338,26.181c-5.139,3.151-14.47,4.147-33.909,4.147
			c-19.444,0-26.734,5.965-26.734,5.965c-39.768,9.057-35.351,18.778-38.22,23.195C0.44,179.742,0,200.952,0,200.952
			C8.171,201.614,6.628,204.928,6.628,204.928z"/>
		<path d="M49.987,170.354c-13.087,0-23.698,10.61-23.698,23.694c0,4.842,1.468,9.337,3.961,13.091
			c4.246,6.385,11.49,10.604,19.736,10.604c8.249,0,15.498-4.225,19.739-10.615c2.488-3.748,3.957-8.238,3.957-13.074
			C73.677,180.964,63.072,170.354,49.987,170.354z"/>
		<path d="M258.27,170.354c-13.086,0-23.701,10.61-23.701,23.694c0,4.335,1.254,8.343,3.283,11.838
			c4.106,7.053,11.661,11.853,20.418,11.853c9.377,0,17.393-5.489,21.24-13.38c1.522-3.133,2.46-6.598,2.46-10.315
			C281.97,180.964,271.354,170.354,258.27,170.354z"/>
	</g>
</g>
<g>
</g>
<g>
</g>
<g>
</g>
<g>
</g>
<g>
</g>
<g>
</g>
<g>
</g>
<g>
</g>
<g>
</g>
<g>
</g>
<g>
</g>
<g>
</g>
<g>
</g>
<g>
</g>
<g>
</g>
</svg>
