<?xml version="1.0" encoding="iso-8859-1"?>
<!-- Generator: Adobe Illustrator 16.0.0, SVG Export Plug-In . SVG Version: 6.00 Build 0)  -->
<!DOCTYPE svg PUBLIC "-//W3C//DTD SVG 1.1//EN" "http://www.w3.org/Graphics/SVG/1.1/DTD/svg11.dtd">
<svg version="1.1" id="Capa_1" xmlns="http://www.w3.org/2000/svg" xmlns:xlink="http://www.w3.org/1999/xlink" x="0px" y="0px"
	 width="329.638px" height="329.637px" viewBox="0 0 329.638 329.637" style="enable-background:new 0 0 329.638 329.637;"
	 xml:space="preserve">
<g>
	<g>
		<path d="M324.873,165.878c0,0-0.823-13.567-2.485-18.543c-1.657-4.971-1.652-4.971,0.828-8.119
			c2.48-3.144-7.291-0.994-8.953-0.663c-1.657,0.337-0.994,1.491-0.994,1.491c-19.222,0.829-63.303-23.86-98.26-27.34
			c-34.958-3.475-69.097-0.161-81.69,2.817c-12.593,2.982-54.018,25.352-58.652,26.512c-4.635,1.16-2.651-1.16-2.651-1.16
			c-23.855,0.989-64.783,21.375-64.783,21.375c-1.657,1.16-2.983,7.953-2.983,7.953l0.829,2.32
			c-6.794,6.302-4.806,19.558-4.806,19.558l3.325-1.165c1.175,2.154,1.481,6.959,1.481,6.959c-5.629,2.651-1.491,4.972-1.491,4.972
			s2.49-2.149,12.593,0.999c3.904,1.212,12.599,1.636,21.805,1.704c-1.294-3.268-2.03-6.814-2.03-10.538
			c0-15.84,12.883-28.723,28.723-28.723c15.834,0,28.723,12.883,28.723,28.723c0,3.438-0.642,6.727-1.755,9.792l147.467-0.248
			c-1.056-2.994-1.662-6.193-1.662-9.544c0-15.84,12.884-28.723,28.724-28.723c15.834,0,28.723,12.883,28.723,28.723
			c0,2.946-0.45,5.794-1.279,8.472c14.675-3.392,31.769-5.769,31.769-5.769l3.147-4.143c0,0,2.485-17.729,0-20.547
			C326.048,170.212,324.873,165.878,324.873,165.878z"/>
		<path d="M64.672,218.42c9.419,0,17.487-5.598,21.205-13.618c1.382-2.988,2.211-6.286,2.211-9.803
			c0-12.935-10.486-23.42-23.42-23.42c-12.935,0-23.421,10.48-23.421,23.42c0,3.807,0.994,7.354,2.61,10.527
			C47.729,213.149,55.543,218.42,64.672,218.42z"/>
		<path d="M266.163,218.42c9.311,0,17.284-5.479,21.055-13.349c1.471-3.056,2.361-6.452,2.361-10.072
			c0-12.935-10.486-23.42-23.421-23.42c-12.936,0-23.421,10.48-23.421,23.42c0,3.402,0.761,6.618,2.066,9.533
			C248.47,212.704,256.636,218.42,266.163,218.42z"/>
	</g>
</g>
<g>
</g>
<g>
</g>
<g>
</g>
<g>
</g>
<g>
</g>
<g>
</g>
<g>
</g>
<g>
</g>
<g>
</g>
<g>
</g>
<g>
</g>
<g>
</g>
<g>
</g>
<g>
</g>
<g>
</g>
</svg>
