<?xml version="1.0" encoding="iso-8859-1"?>
<!-- Generator: Adobe Illustrator 16.0.0, SVG Export Plug-In . SVG Version: 6.00 Build 0)  -->
<!DOCTYPE svg PUBLIC "-//W3C//DTD SVG 1.1//EN" "http://www.w3.org/Graphics/SVG/1.1/DTD/svg11.dtd">
<svg version="1.1" id="Capa_1" xmlns="http://www.w3.org/2000/svg" xmlns:xlink="http://www.w3.org/1999/xlink" x="0px" y="0px"
	 width="491.324px" height="491.324px" viewBox="0 0 491.324 491.324" style="enable-background:new 0 0 491.324 491.324;"
	 xml:space="preserve">
<g>
	<g>
		<path d="M479.959,227.458c-0.481-8.833-33.847-15.214-85.863-22.767c-52.009-7.552-30.421-37.095-96.655-43.963
			c-66.23-6.869-120.695-5.4-125.116,3.438c-4.42,8.84-5.889,39.74-5.889,39.74H20.718c-11.289,3.438-6.374,49.062-6.374,49.062
			c0.061,0.301,0.118,0.509,0.181,0.798h-0.699C6.188,253.767,0,259.962,0,267.592c0,7.643,6.193,13.838,13.826,13.838h16.617
			c4.218,0,17.541-1.896,28.649-4.869c4.983,1.05,9.748,2.236,14.349,3.471c7.033-15.092,22.297-25.596,40.006-25.596
			c24.354,0,44.16,19.809,44.16,44.158h209.997c0-24.35,19.809-44.158,44.158-44.158c22.922,0,41.805,17.564,43.945,39.926
			c10.592-2.316,22.337-5.105,27.198-7.045c9.814-3.927,8.34-38.87,8.34-38.87S480.453,236.289,479.959,227.458z"/>
		<path d="M149.763,298.602c0-20.049-16.258-36.308-36.309-36.308c-14.128,0-26.235,8.155-32.24,19.938
			c-2.511,4.937-4.067,10.451-4.067,16.37c0,20.053,16.256,36.308,36.307,36.308S149.763,318.655,149.763,298.602z"/>
		<path d="M448.076,298.602c0-0.865-0.191-1.688-0.26-2.537c-1.326-18.847-16.875-33.771-36.047-33.771
			c-20.049,0-36.308,16.259-36.308,36.308c0,20.053,16.259,36.308,36.308,36.308S448.076,318.655,448.076,298.602z"/>
	</g>
</g>
<g>
</g>
<g>
</g>
<g>
</g>
<g>
</g>
<g>
</g>
<g>
</g>
<g>
</g>
<g>
</g>
<g>
</g>
<g>
</g>
<g>
</g>
<g>
</g>
<g>
</g>
<g>
</g>
<g>
</g>
</svg>
