<?xml version="1.0" encoding="iso-8859-1"?>
<!-- Generator: Adobe Illustrator 16.0.0, SVG Export Plug-In . SVG Version: 6.00 Build 0)  -->
<!DOCTYPE svg PUBLIC "-//W3C//DTD SVG 1.1//EN" "http://www.w3.org/Graphics/SVG/1.1/DTD/svg11.dtd">
<svg version="1.1" id="Capa_1" xmlns="http://www.w3.org/2000/svg" xmlns:xlink="http://www.w3.org/1999/xlink" x="0px" y="0px"
	 width="319.236px" height="319.236px" viewBox="0 0 319.236 319.236" style="enable-background:new 0 0 319.236 319.236;"
	 xml:space="preserve">
<g>
	<g>
		<path d="M284.206,234.758c-13.317,0-24.906,7.431-30.825,18.378h-7.813c1.367-5.505,5.281-11.304,11.258-16.451
			c9.388-8.078,21.742-12.594,30.804-11.236c5.79,0.859,11.19-3.107,12.061-8.907c0.88-5.794-3.117-11.194-8.906-12.064
			c-14.996-2.273-32.938,3.718-47.064,15.561V27.789c0-3.443-2.791-6.232-6.229-6.232h-4.442c1.005,2.789,1.636,5.748,1.636,8.878
			c0,8.922-4.447,16.793-11.205,21.626v201.08H93.991c-1.225-12.666-7.868-25.109-18.734-34.662
			c-12.22-10.74-27.372-15.855-41.57-14.022c-5.812,0.745-9.911,6.063-9.163,11.868c0.748,5.82,6.077,9.905,11.871,9.165
			c8.034-1.03,17.323,2.299,24.857,8.917c6.077,5.344,10.098,12.111,11.333,18.734h-6.719
			c-5.926-10.946-17.507-18.383-30.828-18.383C15.685,234.758,0,250.448,0,269.799s15.685,35.04,35.038,35.04
			c13.32,0,24.907-7.436,30.828-18.382h187.505c5.929,10.946,17.507,18.382,30.825,18.382c19.355,0,35.04-15.689,35.04-35.04
			S303.562,234.758,284.206,234.758z"/>
		<path d="M223.478,34.559c0.353-1.326,0.601-2.695,0.601-4.129c0-1.222-0.166-2.403-0.425-3.542
			c-1.615-7.144-7.974-12.49-15.606-12.49c-8.854,0-16.026,7.174-16.026,16.032c0,8.854,7.172,16.029,16.026,16.029
			C215.467,46.464,221.645,41.399,223.478,34.559z"/>
	</g>
</g>
<g>
</g>
<g>
</g>
<g>
</g>
<g>
</g>
<g>
</g>
<g>
</g>
<g>
</g>
<g>
</g>
<g>
</g>
<g>
</g>
<g>
</g>
<g>
</g>
<g>
</g>
<g>
</g>
<g>
</g>
</svg>
