<?xml version="1.0" encoding="iso-8859-1"?>
<!-- Generator: Adobe Illustrator 16.0.0, SVG Export Plug-In . SVG Version: 6.00 Build 0)  -->
<!DOCTYPE svg PUBLIC "-//W3C//DTD SVG 1.1//EN" "http://www.w3.org/Graphics/SVG/1.1/DTD/svg11.dtd">
<svg version="1.1" id="Capa_1" xmlns="http://www.w3.org/2000/svg" xmlns:xlink="http://www.w3.org/1999/xlink" x="0px" y="0px"
	 width="443.561px" height="443.561px" viewBox="0 0 443.561 443.561" style="enable-background:new 0 0 443.561 443.561;"
	 xml:space="preserve">
<g>
	<g>
		<path d="M423.92,228.63h-66.728v-80.495h24.894c6.837,0,12.396-5.559,12.396-12.397c0-6.839-5.559-12.397-12.396-12.397h-73.34
			c-6.837,0-12.395,5.558-12.395,12.397c0,6.838,5.558,12.397,12.395,12.397h24.895v80.495H19.626C8.785,228.63,0,237.418,0,248.259
			c0,10.84,8.785,19.624,19.626,19.624h26.313c-4.144,5.481-6.688,12.234-6.688,19.624c0,18.065,14.643,32.713,32.713,32.713
			c18.073,0,32.712-14.64,32.712-32.713c0-7.39-2.553-14.143-6.688-19.624h254.126c-4.147,5.481-6.691,12.234-6.691,19.624
			c0,18.065,14.643,32.713,32.712,32.713c18.078,0,32.713-14.64,32.713-32.713c0-7.39-2.553-14.143-6.692-19.624h19.78
			c10.841,0,19.625-8.784,19.625-19.624C443.561,237.418,434.76,228.63,423.92,228.63z"/>
	</g>
</g>
<g>
</g>
<g>
</g>
<g>
</g>
<g>
</g>
<g>
</g>
<g>
</g>
<g>
</g>
<g>
</g>
<g>
</g>
<g>
</g>
<g>
</g>
<g>
</g>
<g>
</g>
<g>
</g>
<g>
</g>
</svg>
