<?xml version="1.0" encoding="iso-8859-1"?>
<!-- Generator: Adobe Illustrator 16.0.0, SVG Export Plug-In . SVG Version: 6.00 Build 0)  -->
<!DOCTYPE svg PUBLIC "-//W3C//DTD SVG 1.1//EN" "http://www.w3.org/Graphics/SVG/1.1/DTD/svg11.dtd">
<svg version="1.1" id="Capa_1" xmlns="http://www.w3.org/2000/svg" xmlns:xlink="http://www.w3.org/1999/xlink" x="0px" y="0px"
	 width="311.209px" height="311.209px" viewBox="0 0 311.209 311.209" style="enable-background:new 0 0 311.209 311.209;"
	 xml:space="preserve">
<g>
	<g>
		<path d="M21.104,140.08c9.497-6.395,20.917-10.133,33.199-10.133c31.973,0,58.065,25.323,59.471,56.951h83.042
			c1.397-31.633,27.501-56.951,59.471-56.951c18.366,0,34.817,8.362,45.759,21.471c7.368-1.532,11.553-21.973,7.71-23.687
			c-4.862-2.162-6.628-15.508-6.628-15.508c-7.514-11.931-63.629-20.324-63.629-20.324l-4.862,1.766c0,0-15.907-8.839-33.14-18.999
			c-17.232-10.165-58.767-7.954-63.629-3.977c-4.862,3.977-11.49,26.952-11.49,26.952s-95.443-3.977-107.374-2.211
			c-11.93,1.766-11.49,31.692-11.49,31.692c-5.743,3.415-3.091,9.401-3.091,9.401L21.104,140.08z"/>
		<path d="M256.28,135.254c-29.096,0-52.775,22.899-54.168,51.649c-0.041,0.885-0.135,1.755-0.135,2.65
			c0,29.992,24.312,54.304,54.303,54.304c29.986,0,54.304-24.312,54.304-54.304c0-15.876-6.856-30.115-17.72-40.04
			C283.212,140.686,270.396,135.254,256.28,135.254z M256.28,219.861c-16.74,0-30.312-13.571-30.312-30.312
			c0-1.31,0.109-2.589,0.27-3.853c1.9-14.918,14.607-26.46,30.043-26.46c4.707,0,9.14,1.103,13.116,3.019
			c10.16,4.894,17.197,15.26,17.197,27.294C286.594,206.295,273.026,219.861,256.28,219.861z"/>
		<path d="M54.303,243.857c29.989,0,54.3-24.312,54.3-54.304c0-0.896-0.09-1.766-0.132-2.65
			c-1.396-28.75-25.075-51.649-54.168-51.649c-9.942,0-19.234,2.721-27.25,7.387C10.892,152.041,0,169.505,0,189.554
			C0,219.546,24.311,243.857,54.303,243.857z M46.559,160.276c2.478-0.652,5.064-1.035,7.744-1.035
			c15.848,0,28.834,12.164,30.181,27.662c0.073,0.875,0.132,1.755,0.132,2.65c0,16.741-13.575,30.313-30.313,30.313
			c-16.741,0-30.315-13.572-30.315-30.313C23.987,175.495,33.575,163.7,46.559,160.276z"/>
	</g>
</g>
<g>
</g>
<g>
</g>
<g>
</g>
<g>
</g>
<g>
</g>
<g>
</g>
<g>
</g>
<g>
</g>
<g>
</g>
<g>
</g>
<g>
</g>
<g>
</g>
<g>
</g>
<g>
</g>
<g>
</g>
</svg>
