<?xml version="1.0" encoding="iso-8859-1"?>
<!-- Generator: Adobe Illustrator 16.0.0, SVG Export Plug-In . SVG Version: 6.00 Build 0)  -->
<!DOCTYPE svg PUBLIC "-//W3C//DTD SVG 1.1//EN" "http://www.w3.org/Graphics/SVG/1.1/DTD/svg11.dtd">
<svg version="1.1" id="Capa_1" xmlns="http://www.w3.org/2000/svg" xmlns:xlink="http://www.w3.org/1999/xlink" x="0px" y="0px"
	 width="329.815px" height="329.815px" viewBox="0 0 329.815 329.815" style="enable-background:new 0 0 329.815 329.815;"
	 xml:space="preserve">
<g>
	<g>
		<path d="M13.367,189.759c1.018,1.165,6.563,2.527,13.495,3.816c-1.271-3.313-2.004-6.902-2.004-10.662
			c0-16.445,13.377-29.823,29.826-29.823s29.826,13.378,29.826,29.823c0,5.966-1.781,11.517-4.81,16.182
			c35.866,0.953,114.542,3.04,161.446,4.288c-2.641-4.448-4.194-9.627-4.194-15.167c0-16.446,13.381-29.823,29.826-29.823
			c16.451,0,29.826,13.377,29.826,29.823c0,5.681-1.621,10.978-4.392,15.498c14.209-1.269,28.589-3.956,28.589-3.956l3.313-2.812
			c4.977-0.166,5.701-3.868,5.701-3.868l-0.289-7.736c1.098-3.092-1.326-16.793-1.326-16.793
			c-31.597-26.731-110.967-27.446-110.967-27.446c-39.271-26.186-88.65-25.518-102.234-22.701
			c-13.585,2.817-62.303,8.782-62.303,8.782c-9.779,6.297-35.462,6.955-39.768,7.454c-4.306,0.5,0,2.98,0,2.98
			c-1.825,0.166-4.306,5.631-4.306,5.631l-4.974,4.65L0,167.582l8.065,19.087C8.065,186.668,10.276,186.228,13.367,189.759z"/>
		<path d="M54.684,207.438c7.392,0,13.939-3.34,18.437-8.508c3.744-4.309,6.087-9.859,6.087-16.017
			c0-13.54-10.98-24.521-24.523-24.521S30.16,169.368,30.16,182.914c0,4.304,1.204,8.285,3.151,11.802
			C37.487,202.264,45.441,207.438,54.684,207.438z"/>
		<path d="M266.777,212.74c7.404,0,13.96-3.345,18.455-8.528c3.733-4.309,6.068-9.854,6.068-15.995
			c0-13.541-10.978-24.521-24.523-24.521c-13.541,0-24.523,10.975-24.523,24.521c0,5.841,2.128,11.133,5.54,15.343
			C252.284,209.116,259.072,212.74,266.777,212.74z"/>
	</g>
</g>
<g>
</g>
<g>
</g>
<g>
</g>
<g>
</g>
<g>
</g>
<g>
</g>
<g>
</g>
<g>
</g>
<g>
</g>
<g>
</g>
<g>
</g>
<g>
</g>
<g>
</g>
<g>
</g>
<g>
</g>
</svg>
