<?xml version="1.0" encoding="iso-8859-1"?>
<!-- Generator: Adobe Illustrator 16.0.0, SVG Export Plug-In . SVG Version: 6.00 Build 0)  -->
<!DOCTYPE svg PUBLIC "-//W3C//DTD SVG 1.1//EN" "http://www.w3.org/Graphics/SVG/1.1/DTD/svg11.dtd">
<svg version="1.1" id="Capa_1" xmlns="http://www.w3.org/2000/svg" xmlns:xlink="http://www.w3.org/1999/xlink" x="0px" y="0px"
	 width="480.146px" height="480.146px" viewBox="0 0 480.146 480.146" style="enable-background:new 0 0 480.146 480.146;"
	 xml:space="preserve">
<g>
	<g>
		<path d="M336.219,189.902c-38.732-2.268-105.957-9.053-123.862-6.76c-18.136,2.314-52.591,18.827-64.047,23.044
			c18.773,3.825,43.994,7.39,65.545,4.821C241.128,207.757,296.857,197.983,336.219,189.902z"/>
		<path d="M478.169,154.062c-1.831,1.349-9.569,5.643-13.737,6.256c-4.163,0.613-24.533,5.765-24.533,5.765s4.785-5.643-1.587-1.593
			c-6.38,4.047-25.888,8.217-27.724,9.812c-1.839,1.595-4.66,4.17-4.66,4.17c-1.11,3.681,5.146,3.19,10.183,1.351
			c5.029-1.841,11.773-3.442,10.664-2.208c-0.906,0.996-7.045,6.676-10.443,9.022c-15.08-0.827-29.271,1.112-42.295,2.591
			c-30.557,8.534-122.947,25.261-159.247,29.577c-5.496,0.653-11.196,0.943-16.927,0.943c-29.917,0-61.119-7.728-73.68-11.201
			C52.21,208.508,0.891,265.614,0.891,265.614s-3.11,3.767,2.292,6.869c5.4,3.113,1.633,15.052,3.438,17.833
			c1.797,2.776,0.487,5.718,4.577,6.868c3.384,0.95,40.728,5.911,56.138,7.791c-3.344-6.861-5.275-14.543-5.275-22.679
			c0-28.673,23.333-52.008,52.008-52.008c28.677,0,52.01,23.335,52.01,52.008c0,8.977-2.286,17.425-6.308,24.802
			c5.34-1.374,11.431-3.045,18.492-4.845c26.99-6.868,91.632-15.088,93.227-14.105c1.587,0.981,6.993,2.821,6.993,2.821
			c11.16,2.444,74.578-2.709,74.578-2.709c3.033,0,14.259,2.115,22.085,3.498c-6.247-9.494-9.91-20.822-9.91-33.021
			c0-33.209,27.021-60.233,60.235-60.233c16.679,0,31.791,6.823,42.715,17.825c3.475-1.381,4.877-4.042,4.877-4.042l-4.744-8.662
			c-6.456-4.24-12.82-7.414-19.084-9.913l7.967-23.022c4.781,0.068,17.661-11.722,20.976-13.439
			C481.495,155.534,480.009,152.713,478.169,154.062z M427.103,187.71c13.125-9.668,14.575-7.444,12.428-3.597
			c-1.259,2.254-2.192,4.164-2.821,5.49C433.475,188.79,430.276,188.193,427.103,187.71z"/>
		<path d="M114.069,238.123c-24.389,0-44.158,19.772-44.158,44.158c0,8.439,2.41,16.29,6.516,22.999
			c7.763,12.675,21.688,21.158,37.642,21.158c14.1,0,26.621-6.628,34.706-16.919c5.903-7.498,9.454-16.943,9.454-27.238
			C158.229,257.904,138.452,238.123,114.069,238.123z"/>
		<path d="M425.464,206.354c-28.926,0-52.385,23.451-52.385,52.383c0,12.66,4.492,24.266,11.966,33.326
			c9.605,11.646,24.141,19.059,40.419,19.059c28.93,0,52.381-23.443,52.381-52.385c0-14.911-6.26-28.34-16.266-37.886
			C452.182,211.889,439.478,206.354,425.464,206.354z"/>
	</g>
</g>
<g>
</g>
<g>
</g>
<g>
</g>
<g>
</g>
<g>
</g>
<g>
</g>
<g>
</g>
<g>
</g>
<g>
</g>
<g>
</g>
<g>
</g>
<g>
</g>
<g>
</g>
<g>
</g>
<g>
</g>
</svg>
