<?xml version="1.0" encoding="iso-8859-1"?>
<!-- Generator: Adobe Illustrator 16.0.0, SVG Export Plug-In . SVG Version: 6.00 Build 0)  -->
<!DOCTYPE svg PUBLIC "-//W3C//DTD SVG 1.1//EN" "http://www.w3.org/Graphics/SVG/1.1/DTD/svg11.dtd">
<svg version="1.1" id="Capa_1" xmlns="http://www.w3.org/2000/svg" xmlns:xlink="http://www.w3.org/1999/xlink" x="0px" y="0px"
	 width="332.772px" height="332.772px" viewBox="0 0 332.772 332.772" style="enable-background:new 0 0 332.772 332.772;"
	 xml:space="preserve">
<g>
	<g>
		<path d="M329.172,158.389c-0.108-3.091-1.651-4.971-1.651-4.971c1.325-3.977,0.549-7.405,0.549-7.405h-2.32
			c-1.766-4.862-13.918-6.188-13.918-6.188c-46.837,4.862-75.56-20.547-130.572-21.432c-55.012-0.885-87.267,25.249-87.267,25.249
			c-9.442-1.823-30.652,3.65-30.652,3.65S5.177,169.989,1.094,174.959c-4.083,4.977,4.575,10.936,4.575,10.936v5.8
			c-11.431,3.314,2.154,12.097,2.154,12.097s19.19,1.449,39.757,2.273c-3.123-4.754-4.958-10.424-4.958-16.523
			c0-16.627,13.525-30.158,30.16-30.158s30.16,13.525,30.16,30.158c0,6.017-1.792,11.625-4.847,16.336
			c33.246-1.024,90.796-2.36,117.852-2.081c11.252,0.114,26.098,0.166,40.855,0.187c-2.982-4.779-4.733-10.393-4.733-16.43
			c0-17.182,13.977-31.152,31.152-31.152c17.181,0,31.151,13.971,31.151,31.152c0,5.98-1.725,11.562-4.66,16.305
			c2.6-0.02,4.313-0.046,4.826-0.066c3.65-0.166,13.582-6.96,14.747-11.931c1.16-4.977,1.486-10.937,2.874-15.41
			c1.377-4.474,0-14.856,0-14.856S329.286,161.481,329.172,158.389z"/>
		<path d="M72.783,214.401c7.337,0,13.867-3.241,18.416-8.301c3.961-4.4,6.436-10.164,6.436-16.554
			c0-13.728-11.13-24.855-24.857-24.855c-13.727,0-24.857,11.128-24.857,24.855c0,6.493,2.545,12.345,6.618,16.771
			C59.086,211.248,65.543,214.401,72.783,214.401z"/>
		<path d="M283.222,213.402c8.041,0,15.13-3.744,19.868-9.497c3.682-4.463,5.98-10.112,5.98-16.352
			c0-14.271-11.573-25.85-25.849-25.85c-14.271,0-25.85,11.578-25.85,25.85c0,6.28,2.33,11.95,6.048,16.43
			C268.158,209.689,275.222,213.402,283.222,213.402z"/>
	</g>
</g>
<g>
</g>
<g>
</g>
<g>
</g>
<g>
</g>
<g>
</g>
<g>
</g>
<g>
</g>
<g>
</g>
<g>
</g>
<g>
</g>
<g>
</g>
<g>
</g>
<g>
</g>
<g>
</g>
<g>
</g>
</svg>
