<?xml version="1.0" encoding="iso-8859-1"?>
<!-- Generator: Adobe Illustrator 16.0.0, SVG Export Plug-In . SVG Version: 6.00 Build 0)  -->
<!DOCTYPE svg PUBLIC "-//W3C//DTD SVG 1.1//EN" "http://www.w3.org/Graphics/SVG/1.1/DTD/svg11.dtd">
<svg version="1.1" id="Capa_1" xmlns="http://www.w3.org/2000/svg" xmlns:xlink="http://www.w3.org/1999/xlink" x="0px" y="0px"
	 width="471.023px" height="471.023px" viewBox="0 0 471.023 471.023" style="enable-background:new 0 0 471.023 471.023;"
	 xml:space="preserve">
<g>
	<g>
		<path d="M455.322,271.462v-47.189l0,0c0,0,0,0,0-0.008c0-12.852-7.186-23.598-17.465-26.134l-96.551-24.052
			c-3.847-0.96-8.003-3.517-11.598-6.893c-3.582-3.37-6.607-7.536-8.235-11.738l-13.452-32.075
			c-4.573-11.838-17.312-16.038-26.834-16.038l0,0h-33.898l-15.703-31.402l-3.926-7.851h-39.251l-3.925,7.851l-15.701,31.402
			h-24.438l0,0c-10.463,0-24.275,2.919-31.559,11.069l-42.134,45.608l-5.811,6.29c-5.462,6.1-17.176,11.73-25.575,12.523
			l-3.933-0.103c-11.289,1.018-21.131,11.131-22.271,23.025l-7.151,73.819c-0.032,0.293,0.014,0.585-0.008,0.865
			C2.204,285.452,0,291.243,0,297.431v19.516c0,14.783,12.028,27.937,29.267,32.184c4.338,30.404,30.412,53.812,62.017,53.812
			c31.063,0,56.781-22.61,61.783-52.249h146.98c4.998,29.639,30.713,52.249,61.774,52.249c31.066,0,56.785-22.61,61.787-52.249
			h6.432c23.359,0,40.984-15.777,40.984-33.747v-19.516C471.023,286.963,464.936,277.573,455.322,271.462z M329.717,264.341v22.065
			c-4.403,2.637-8.495,5.734-12.114,9.337c-6.592,6.553-11.686,14.596-14.859,23.552H150.357c-3.17-8.956-8.257-16.999-14.85-23.552
			c-11.347-11.269-26.968-18.254-44.224-18.254c-7.237,0-14.16,1.287-20.63,3.551v-16.699v-88.742
			c0.008-0.008,0.024-0.022,0.03-0.03l47.919-51.89c5.617-6.272,17.372-8.494,25.744-8.494h20.512h86.354h29.976
			c7.037,0,16.374,2.881,19.564,11.115l13.448,32.078c2.834,7.332,8.801,14.254,15.517,18.763V264.341z"/>
		<path d="M109.906,170.137v7.851c0,21.672,1.874,39.25,23.55,39.25h54.954v-86.354h-39.252
			C127.48,130.884,109.906,148.464,109.906,170.137z"/>
		<path d="M259.062,130.884h-47.104v86.354h62.805c21.68,0,23.552-17.579,23.552-39.25v-7.851
			C298.315,148.464,280.742,130.884,259.062,130.884z"/>
	</g>
</g>
<g>
</g>
<g>
</g>
<g>
</g>
<g>
</g>
<g>
</g>
<g>
</g>
<g>
</g>
<g>
</g>
<g>
</g>
<g>
</g>
<g>
</g>
<g>
</g>
<g>
</g>
<g>
</g>
<g>
</g>
</svg>
