<?xml version="1.0" encoding="iso-8859-1"?>
<!-- Generator: Adobe Illustrator 16.0.0, SVG Export Plug-In . SVG Version: 6.00 Build 0)  -->
<!DOCTYPE svg PUBLIC "-//W3C//DTD SVG 1.1//EN" "http://www.w3.org/Graphics/SVG/1.1/DTD/svg11.dtd">
<svg version="1.1" id="Capa_1" xmlns="http://www.w3.org/2000/svg" xmlns:xlink="http://www.w3.org/1999/xlink" x="0px" y="0px"
	 width="473.037px" height="473.037px" viewBox="0 0 473.037 473.037" style="enable-background:new 0 0 473.037 473.037;"
	 xml:space="preserve">
<g>
	<g>
		<path d="M465.641,308.23c27.198-109.465-29.379-105.384-29.379-105.384s-16.314-53.655-16.314-73.155
			c0-19.504-7.618-19.174-7.618-19.174h-33.718c-62.159-2.637-83.623,39.129-88.745,84.936v52.77
			c3.082,33.543,10.411,60.016,10.411,60.016h32.084c4.176-25.391,26.217-44.843,52.766-44.843
			c26.558,0,48.598,19.452,52.773,44.843h27.74V308.23z"/>
		<path d="M267.633,327.81v-25.103h-78.984c1.258,4.54,1.978,9.285,1.978,14.223c0,3.727-0.382,7.361-1.114,10.88H267.633z"/>
		<path d="M42.428,302.708v25.103h42.221c-0.729-3.519-1.116-7.153-1.116-10.88c0-4.938,0.725-9.683,1.981-14.223H42.428z"/>
		<path d="M92.694,287.01c6.746-9.975,16.755-17.564,28.484-21.215c5.021-1.563,10.369-2.409,15.903-2.409
			c5.537,0,10.871,0.846,15.904,2.409c11.73,3.667,21.738,11.24,28.481,21.215h86.167h6.532V110.509H0V287.01h42.428H92.694z"/>
		<path d="M177.086,294.861c-1.553-2.817-3.42-5.438-5.516-7.851c-8.38-9.653-20.705-15.773-34.488-15.773
			c-13.783,0-26.11,6.136-34.485,15.773c-2.098,2.413-3.966,5.033-5.521,7.851c-1.373,2.48-2.511,5.113-3.408,7.847
			c-1.469,4.48-2.284,9.257-2.284,14.223c0,3.751,0.505,7.39,1.36,10.88c4.891,19.969,22.851,34.812,44.338,34.812
			c21.486,0,39.447-14.844,44.338-34.812c0.856-3.49,1.356-7.121,1.356-10.88c0-4.966-0.815-9.742-2.284-14.223
			C179.593,299.974,178.46,297.349,177.086,294.861z"/>
		<path d="M385.143,271.237c-22.265,0-40.783,15.918-44.847,36.993c-0.537,2.812-0.846,5.727-0.846,8.7
			c0,25.246,20.454,45.708,45.692,45.708c25.239,0,45.701-20.462,45.701-45.708c0-2.974-0.309-5.888-0.854-8.7
			C425.911,287.155,407.393,271.237,385.143,271.237z"/>
	</g>
</g>
<g>
</g>
<g>
</g>
<g>
</g>
<g>
</g>
<g>
</g>
<g>
</g>
<g>
</g>
<g>
</g>
<g>
</g>
<g>
</g>
<g>
</g>
<g>
</g>
<g>
</g>
<g>
</g>
<g>
</g>
</svg>
