<?xml version="1.0" encoding="iso-8859-1"?>
<!-- Generator: Adobe Illustrator 16.0.0, SVG Export Plug-In . SVG Version: 6.00 Build 0)  -->
<!DOCTYPE svg PUBLIC "-//W3C//DTD SVG 1.1//EN" "http://www.w3.org/Graphics/SVG/1.1/DTD/svg11.dtd">
<svg version="1.1" id="Capa_1" xmlns="http://www.w3.org/2000/svg" xmlns:xlink="http://www.w3.org/1999/xlink" x="0px" y="0px"
	 width="464.596px" height="464.596px" viewBox="0 0 464.596 464.596" style="enable-background:new 0 0 464.596 464.596;"
	 xml:space="preserve">
<g>
	<g>
		<path d="M3.726,275.395c0.214,30.985,25.68,28.02,25.68,28.02l20.231,0.321c0.635-31.539,26.345-56.914,58.038-56.914
			c32.083,0,58.092,26.004,58.092,58.088c0,0.2-0.03,0.393-0.03,0.589c15.912-0.145,85.384-0.817,150.825-1.907
			c0.706-31.471,26.385-56.77,58.027-56.77c30.581,0,55.596,23.652,57.872,53.655c2.408-0.152,4.556-0.296,6.119-0.456
			c34.392-3.398,24.622-21.652,25.046-26.313c0.421-4.66-8.059-6.047-8.059-6.047s13.998-22.811,0-77.566
			c-14.014-54.757,10.183-82.767-66.23-83.515c-76.41-0.744-263.998,3.29-263.998,3.29s-51.784,3.4-64.093,28.868
			c-12.307,25.463-47.542,74.704-47.542,74.704c-9.538,13.636-8.061,36.714-8.061,36.714C-5.818,262.66,3.726,275.395,3.726,275.395
			z"/>
		<path d="M107.674,268.594c24.718,0,44.757,20.041,44.757,44.755c0,24.718-20.039,44.759-44.757,44.759
			c-24.716,0-44.755-20.041-44.755-44.759C62.919,288.635,82.958,268.594,107.674,268.594z"/>
		<path d="M374.588,268.594c24.715,0,44.756,20.041,44.756,44.755c0,24.718-20.041,44.759-44.756,44.759
			c-24.717,0-44.759-20.041-44.759-44.759C329.83,288.635,349.872,268.594,374.588,268.594z"/>
	</g>
</g>
<g>
</g>
<g>
</g>
<g>
</g>
<g>
</g>
<g>
</g>
<g>
</g>
<g>
</g>
<g>
</g>
<g>
</g>
<g>
</g>
<g>
</g>
<g>
</g>
<g>
</g>
<g>
</g>
<g>
</g>
</svg>
