<?xml version="1.0" encoding="iso-8859-1"?>
<!-- Generator: Adobe Illustrator 16.0.0, SVG Export Plug-In . SVG Version: 6.00 Build 0)  -->
<!DOCTYPE svg PUBLIC "-//W3C//DTD SVG 1.1//EN" "http://www.w3.org/Graphics/SVG/1.1/DTD/svg11.dtd">
<svg version="1.1" id="Capa_1" xmlns="http://www.w3.org/2000/svg" xmlns:xlink="http://www.w3.org/1999/xlink" x="0px" y="0px"
	 width="488.071px" height="488.071px" viewBox="0 0 488.071 488.071" style="enable-background:new 0 0 488.071 488.071;"
	 xml:space="preserve">
<g>
	<g>
		<path d="M37.844,315.491c6.179,19.725,24.597,34.039,46.359,34.039c21.538,0,39.776-14.038,46.136-33.45
			c0.423-1.282,0.768-2.601,1.082-3.928c0.307-1.294,0.551-2.604,0.748-3.938c0.353-2.377,0.597-4.785,0.597-7.254
			c0-26.83-21.747-48.582-48.578-48.582c-26.824,0-48.578,21.752-48.578,48.582c0,2.24,0.202,4.44,0.503,6.608
			c0.18,1.334,0.398,2.661,0.681,3.963C37.116,312.858,37.438,314.192,37.844,315.491z"/>
		<path d="M335.019,311.095c4.672,21.957,24.152,38.427,47.496,38.427c25.334,0,46.105-19.396,48.35-44.146
			c0.115-1.311,0.184-2.629,0.208-3.971c0-0.152,0.024-0.305,0.024-0.457c0-1.183-0.101-2.333-0.177-3.491
			c-1.787-25.19-22.746-45.091-48.397-45.091c-26.826,0-48.574,21.748-48.574,48.582c0,0.789,0.076,1.547,0.112,2.328
			c0.063,1.318,0.164,2.637,0.333,3.927C334.554,308.522,334.754,309.824,335.019,311.095z"/>
		<path d="M462.803,160.161c-5.674,0.533-10.455,3.376-13.524,7.348c-1.287,1.663-2.253,3.519-2.825,5.52
			c-0.546,1.86-0.813,3.807-0.622,5.815l1.984,21.087c-1.619-1.591-2.99-2.511-2.99-2.511c0-29.438-10.303-49.064-10.303-49.064
			l7.851-5.402l-5.397-4.412c0,0-66.247,0-121.682,0c-55.443,0-119.718,12.263-127.569,20.608c-7.851,8.345-46.12,45.14-46.12,45.14
			L29.25,219.99c0,0-16.186,23.551-19.625,29.928c-3.438,6.371-5.889,6.868-5.889,6.868c-13.729,33.519,14.038,46.077,24.311,49.479
			c-0.167-1.747-0.265-3.526-0.265-5.317c0-31.114,25.307-56.427,56.429-56.427c31.118,0,56.426,25.312,56.426,56.427
			c0,2.437-0.202,4.829-0.509,7.173c58.649-0.657,128.587-2.36,186.104-4.524c-0.035-0.882-0.128-1.747-0.128-2.637
			c0-31.109,25.308-56.431,56.425-56.431c29.354,0,53.52,22.532,56.164,51.205c20.262-6.472,22.217-30.284,20.029-51.227
			c1.282,0.808,2.652,1.475,4.14,1.97c1.307,0.433,2.661,0.763,4.071,0.908c1.335,0.142,2.701,0.185,4.104,0.058
			c10.247-0.966,17.846-9.333,16.964-18.683l-5.038-53.409C482.07,165.996,473.046,159.195,462.803,160.161z"/>
	</g>
</g>
<g>
</g>
<g>
</g>
<g>
</g>
<g>
</g>
<g>
</g>
<g>
</g>
<g>
</g>
<g>
</g>
<g>
</g>
<g>
</g>
<g>
</g>
<g>
</g>
<g>
</g>
<g>
</g>
<g>
</g>
</svg>
